<?xml version="1.0" encoding="utf-8"?>
<!-- Generator: Adobe Illustrator 19.0.0, SVG Export Plug-In . SVG Version: 6.00 Build 0)  -->
<svg version="1.1" id="图层_1" xmlns="http://www.w3.org/2000/svg" xmlns:xlink="http://www.w3.org/1999/xlink" x="0px" y="0px"
	 viewBox="0 0 300 300" style="enable-background:new 0 0 300 300;" xml:space="preserve">
<style type="text/css">
	.st0{fill:#DA2423;}
	.st1{fill:#FFFFFF;}
	.st2{fill:#888988;}
</style>
<g id="XMLID_1624_">
	<rect id="XMLID_1657_" y="94.9" class="st0" width="300" height="57.5"/>
	<rect id="XMLID_1656_" y="152.5" class="st1" width="300" height="52.6"/>
	<g id="layer1_2_" transform="translate(-702.6538,-712.5837)">
		<g id="g16337_1_">
			<path id="path16197_1_" class="st1" d="M837.4,841h14.9l-7.9-12.7L830,851.3h-6.6l17.6-27.5c0.8-1.1,2-1.8,3.5-1.8
				c1.4,0,2.6,0.6,3.4,1.7l17.7,27.6h-6.6l-3.1-5.1h-15.1L837.4,841z M905.8,846.2v-23.9h-5.6v26.3c0,0.7,0.3,1.4,0.8,1.9
				c0.5,0.5,1.3,0.8,2,0.8h25.5l3.3-5.1H905.8z M813.4,841.9c5.4,0,9.8-4.4,9.8-9.8s-4.4-9.8-9.8-9.8H789v29h5.6v-23.9H813
				c2.6,0,4.7,2.1,4.7,4.7s-2.1,4.7-4.7,4.7l-15.7,0l16.7,14.5h8.1l-11.2-9.4H813.4z M754.6,851.3c-8,0-14.5-6.5-14.5-14.5
				c0-8,6.5-14.5,14.5-14.5h16.9c8,0,14.5,6.5,14.5,14.5c0,8-6.5,14.5-14.5,14.5H754.6z M771.1,846.2c5.2,0,9.4-4.2,9.4-9.4
				c0-5.2-4.2-9.4-9.4-9.4H755c-5.2,0-9.4,4.2-9.4,9.4c0,5.2,4.2,9.4,9.4,9.4H771.1z M877.2,851.3c-8,0-14.5-6.5-14.5-14.5
				c0-8,6.5-14.5,14.5-14.5h20l-3.3,5.1h-16.4c-5.2,0-9.4,4.2-9.4,9.4c0,5.2,4.2,9.4,9.4,9.4h20.1l-3.3,5.1H877.2z M945.5,846.2
				c-4.3,0-7.9-2.9-9-6.8h23.9l3.3-5.1h-27.2c1.1-3.9,4.8-6.8,9-6.8h16.4l3.3-5.1h-20.1c-8,0-14.5,6.5-14.5,14.5
				c0,8,6.5,14.5,14.5,14.5h17.2l3.3-5.1H945.5"/>
			<path id="path16199_1_" class="st1" d="M968.2,825.3c0-1.4,1.1-2.5,2.5-2.5c1.4,0,2.6,1.1,2.6,2.5c0,1.4-1.1,2.6-2.6,2.6
				C969.3,827.9,968.2,826.8,968.2,825.3z M970.7,828.6c1.8,0,3.3-1.5,3.3-3.3s-1.5-3.3-3.3-3.3c-1.8,0-3.2,1.5-3.2,3.3
				S968.9,828.6,970.7,828.6z M970.4,823.4c0.5,0,0.7,0,1,0.1c0.6,0.2,0.7,0.8,0.7,1c0,0,0,0.2,0,0.3c0,0.1-0.1,0.4-0.4,0.6
				c0,0-0.1,0-0.2,0.1l0.8,1.5h-0.8l-0.7-1.4h-0.5v1.4h-0.7v-3.7H970.4z M970.7,825.1c0.2,0,0.5,0,0.6-0.2c0.1-0.1,0.1-0.2,0.1-0.3
				c0-0.2-0.1-0.3-0.3-0.4c-0.2-0.1-0.3-0.1-0.7-0.1h-0.2v1.1H970.7"/>
		</g>
	</g>
	<g id="XMLID_1625_">
		<path id="XMLID_1643_" class="st2" d="M71.7,187.6h-5l-2.8-11c-0.1-0.4-0.3-1.2-0.5-2.4c-0.3-1.2-0.4-2-0.4-2.5
			c-0.1,0.5-0.2,1.3-0.4,2.5c-0.2,1.1-0.4,1.9-0.5,2.4l-2.8,10.9h-5l-5.3-20.9h4.4l2.7,11.4c0.5,2.1,0.8,3.9,1,5.5
			c0.1-0.5,0.2-1.4,0.4-2.5c0.2-1.1,0.4-2,0.6-2.6l3-11.7H65l3,11.7c0.1,0.5,0.3,1.3,0.5,2.4c0.2,1.1,0.4,2,0.5,2.8
			c0.1-0.7,0.2-1.7,0.5-2.8c0.2-1.1,0.4-2,0.6-2.7l2.7-11.4H77L71.7,187.6z"/>
		<path id="XMLID_1641_" class="st2" d="M97.7,187.6h-12v-20.9h12v3.6h-7.6v4.6h7.1v3.6h-7.1v5.4h7.6V187.6z"/>
		<path id="XMLID_1637_" class="st2" d="M108.1,166.8h6.5c3,0,5.1,0.4,6.4,1.3c1.3,0.8,2,2.2,2,4c0,1.2-0.3,2.3-0.9,3.1
			c-0.6,0.8-1.4,1.3-2.3,1.4v0.1c1.3,0.3,2.3,0.8,2.9,1.7c0.6,0.8,0.9,1.9,0.9,3.2c0,1.9-0.7,3.4-2.1,4.5c-1.4,1.1-3.2,1.6-5.6,1.6
			h-7.8V166.8z M112.5,175h2.6c1.2,0,2.1-0.2,2.6-0.6c0.5-0.4,0.8-1,0.8-1.8c0-0.8-0.3-1.4-0.9-1.7c-0.6-0.3-1.5-0.5-2.8-0.5h-2.3
			V175z M112.5,178.5v5.4h2.9c1.2,0,2.1-0.2,2.7-0.7c0.6-0.5,0.9-1.2,0.9-2.1c0-1.7-1.2-2.6-3.7-2.6H112.5z"/>
		<path id="XMLID_1635_" class="st2" d="M133.7,187.6v-20.9h4.4V184h8.5v3.7H133.7z"/>
		<path id="XMLID_1632_" class="st2" d="M175.2,177.2c0,3.5-0.9,6.1-2.6,8c-1.7,1.9-4.2,2.8-7.4,2.8c-3.2,0-5.6-0.9-7.4-2.8
			c-1.7-1.9-2.6-4.5-2.6-8s0.9-6.1,2.6-8c1.7-1.8,4.2-2.7,7.4-2.7s5.7,0.9,7.4,2.8C174.3,171,175.2,173.7,175.2,177.2z M159.9,177.2
			c0,2.3,0.4,4.1,1.3,5.3s2.2,1.8,4,1.8c3.5,0,5.3-2.3,5.3-7c0-4.7-1.8-7-5.3-7c-1.8,0-3.1,0.6-4,1.8
			C160.4,173.1,159.9,174.8,159.9,177.2z"/>
		<path id="XMLID_1630_" class="st2" d="M193.4,175.9h8.3v10.8c-1.3,0.4-2.6,0.7-3.8,0.9c-1.2,0.2-2.4,0.3-3.6,0.3
			c-3.1,0-5.6-0.9-7.2-2.8c-1.7-1.8-2.5-4.5-2.5-8c0-3.4,1-6,2.9-7.9c1.9-1.9,4.6-2.8,8-2.8c2.1,0,4.2,0.4,6.2,1.3l-1.5,3.5
			c-1.5-0.8-3.1-1.1-4.7-1.1c-1.9,0-3.4,0.6-4.6,1.9c-1.2,1.3-1.7,3-1.7,5.2c0,2.3,0.5,4,1.4,5.2c0.9,1.2,2.3,1.8,4,1.8
			c0.9,0,1.9-0.1,2.8-0.3v-4.3h-4V175.9z"/>
		<path id="XMLID_1628_" class="st2" d="M212.7,187.6v-20.9h4.4v20.9H212.7z"/>
		<path id="XMLID_1626_" class="st2" d="M237.2,170.1c-1.7,0-3,0.6-3.9,1.9c-0.9,1.3-1.4,3-1.4,5.2c0,4.6,1.7,7,5.2,7
			c1.5,0,3.2-0.4,5.3-1.1v3.7c-1.7,0.7-3.6,1.1-5.7,1.1c-3,0-5.4-0.9-7-2.8c-1.6-1.8-2.4-4.5-2.4-7.9c0-2.2,0.4-4.1,1.2-5.7
			c0.8-1.6,1.9-2.9,3.4-3.8s3.2-1.3,5.2-1.3c2,0,4.1,0.5,6.1,1.5l-1.4,3.6c-0.8-0.4-1.6-0.7-2.4-1
			C238.7,170.3,238,170.1,237.2,170.1z"/>
	</g>
</g>
</svg>
