<?xml version="1.0" standalone="no"?>
<!DOCTYPE svg PUBLIC "-//W3C//DTD SVG 20010904//EN"
 "http://www.w3.org/TR/2001/REC-SVG-20010904/DTD/svg10.dtd">
<svg version="1.0" xmlns="http://www.w3.org/2000/svg"
 width="403.000000pt" height="135.000000pt" viewBox="0 0 403.000000 135.000000"
 preserveAspectRatio="xMidYMid meet">

<g transform="translate(0.000000,135.000000) scale(0.100000,-0.100000)"
fill="#000000" stroke="none">
<path d="M564 1340 c-137 -25 -264 -91 -363 -191 -79 -78 -132 -165 -168 -274
-22 -68 -26 -97 -26 -200 0 -103 4 -132 26 -200 36 -109 89 -196 168 -274 78
-79 166 -132 274 -168 65 -21 100 -26 190 -27 133 -1 191 12 313 71 159 76
277 212 340 392 23 67 26 91 26 206 0 115 -3 139 -26 206 -61 174 -180 314
-329 388 -46 23 -109 48 -139 56 -70 19 -220 27 -286 15z m-28 -365 c27 -8 62
-25 77 -37 l28 -23 -36 -47 -35 -47 -33 19 c-20 13 -50 20 -80 20 -40 0 -54
-5 -77 -28 -47 -47 -63 -150 -39 -247 22 -85 95 -116 184 -76 26 12 49 20 50
19 76 -109 76 -99 0 -141 -33 -18 -56 -22 -130 -22 -81 0 -95 3 -143 29 -101
56 -148 156 -140 301 11 215 177 339 374 280z m292 -38 c5 -18 31 -124 57
-235 27 -111 50 -200 52 -198 2 2 30 106 62 230 32 125 61 229 63 232 3 3 41
4 85 2 l79 -3 -101 -317 c-57 -174 -114 -337 -129 -361 -45 -78 -117 -126
-219 -147 -32 -6 -60 -10 -62 -8 -2 1 -6 28 -10 59 l-7 55 59 17 c108 30 109
10 -2 364 -53 169 -98 316 -101 326 -5 15 3 17 80 17 l85 0 9 -33z"/>
<path d="M1710 979 c-19 -6 -52 -24 -72 -40 -20 -16 -39 -29 -42 -29 -3 0 -6
14 -6 30 l0 30 -70 0 -70 0 0 -415 0 -415 23 0 c12 0 46 3 75 6 l52 7 0 133
c0 74 2 134 5 134 2 0 20 -11 40 -24 114 -78 260 -18 314 129 20 52 22 75 19
176 -3 105 -6 121 -33 175 -23 44 -41 65 -70 81 -49 26 -118 35 -165 22z m70
-137 c34 -34 44 -89 38 -201 -6 -111 -42 -161 -114 -161 -33 0 -81 25 -94 49
-5 11 -10 75 -10 142 l0 121 39 39 c50 50 98 54 141 11z"/>
<path d="M2649 981 c-127 -26 -209 -145 -209 -305 0 -142 50 -239 148 -284
101 -47 237 -33 340 34 l22 15 -32 43 -33 43 -50 -23 c-114 -54 -215 -15 -232
89 l-6 37 188 0 188 0 -6 83 c-6 93 -23 140 -69 193 -54 61 -160 93 -249 75z
m112 -111 c26 -14 46 -57 50 -105 l4 -40 -107 -3 -108 -3 0 28 c1 37 33 108
57 122 23 13 79 14 104 1z"/>
<path d="M3193 980 c-103 -21 -163 -84 -163 -173 0 -81 60 -141 176 -177 105
-32 124 -45 124 -85 0 -71 -102 -92 -203 -41 l-52 26 -37 -42 -38 -43 23 -17
c49 -38 129 -61 218 -62 73 0 93 3 142 27 81 40 102 74 102 165 0 73 0 74 -41
111 -30 28 -65 46 -137 70 -121 41 -151 76 -99 119 24 18 111 14 161 -8 24
-11 44 -20 46 -20 9 0 55 83 50 90 -12 19 -81 48 -140 59 -65 12 -72 12 -132
1z"/>
<path d="M3732 980 c-140 -29 -205 -139 -147 -250 21 -41 66 -69 163 -102 94
-31 122 -50 122 -83 0 -73 -130 -94 -225 -35 l-31 19 -38 -38 c-23 -24 -35
-44 -31 -51 4 -7 34 -25 67 -40 151 -72 341 -33 401 81 24 44 17 127 -13 169
-22 31 -91 71 -145 84 -110 27 -158 74 -120 116 24 27 114 27 172 0 l43 -19
30 44 30 43 -26 17 c-62 41 -175 61 -252 45z"/>
<path d="M2297 964 c-16 -8 -41 -36 -58 -62 -26 -41 -29 -43 -29 -20 0 14 -3
40 -6 57 -6 31 -7 31 -70 31 l-64 0 0 -295 0 -295 75 0 75 0 0 153 c0 169 12
226 57 271 20 21 36 26 74 26 52 0 52 0 64 75 3 22 8 48 11 58 5 15 -2 17 -48
17 -29 -1 -66 -8 -81 -16z"/>
</g>
</svg>
