<?xml version="1.0" encoding="utf-8"?>
<!-- Generator: Adobe Illustrator 21.0.0, SVG Export Plug-In . SVG Version: 6.00 Build 0)  -->
<svg version="1.1" id="Layer_1" xmlns="http://www.w3.org/2000/svg" xmlns:xlink="http://www.w3.org/1999/xlink" x="0px" y="0px"
	 viewBox="0 0 515.5 104" style="enable-background:new 0 0 515.5 104;" xml:space="preserve">
<style type="text/css">
	.st0{enable-background:new    ;}
	.st1{fill:#6DB33F;}
	.st2{fill:#FFFFFF;}
</style>
<g class="st0">
	<path class="st1" d="M2.2,73.5c-1.2-0.7-2.2-2.1-2.2-4c0-2.6,2-4.6,4.6-4.6c0.9,0,1.8,0.3,2.5,0.7c4.8,3.2,9.8,4.8,14.4,4.8
		c4.9,0,7.7-2.1,7.7-5.4v-0.2c0-3.9-5.3-5.2-11.1-7c-7.4-2.1-15.6-5.1-15.6-14.6V43c0-9.4,7.8-15.2,17.8-15.2
		c5.3,0,10.9,1.5,15.7,4.1c1.6,0.8,2.7,2.4,2.7,4.3c0,2.6-2.1,4.6-4.7,4.6c-0.9,0-1.5-0.2-2.3-0.6c-4.1-2.1-8.2-3.4-11.7-3.4
		c-4.4,0-7,2.1-7,4.9v0.2c0,3.7,5.4,5.2,11.2,7.1c7.3,2.3,15.5,5.6,15.5,14.5v0.2c0,10.5-8.1,15.7-18.5,15.7
		C14.8,79.4,7.9,77.4,2.2,73.5z"/>
	<path class="st1" d="M49.2,33.8c0-3.2,2.5-5.8,5.7-5.8s5.8,2.5,5.8,5.8v3.1c3.7-5.2,8.9-9.3,17-9.3c11.7,0,23.1,9.3,23.1,25.9v0.2
		c0,16.5-11.3,25.9-23.1,25.9c-8.3,0-13.5-4.2-17-8.8v17.7c0,3.2-2.5,5.7-5.8,5.7c-3.1,0-5.7-2.5-5.7-5.7V33.8z M89.2,53.6v-0.2
		c0-9.6-6.5-16-14.3-16c-7.7,0-14.5,6.4-14.5,16v0.2c0,9.5,6.8,16,14.5,16C82.7,69.6,89.2,63.5,89.2,53.6z"/>
	<path class="st1" d="M110.4,33.8c0-3.2,2.5-5.8,5.7-5.8c3.2,0,5.8,2.5,5.8,5.8v5.1c2.6-6.2,7.6-11,12.6-11c3.6,0,5.7,2.4,5.7,5.7
		c0,3-2,5-4.5,5.5c-8.1,1.4-13.7,7.7-13.7,19.5v14.7c0,3.1-2.5,5.7-5.8,5.7c-3.1,0-5.7-2.5-5.7-5.7V33.8z"/>
	<path class="st1" d="M147,15.2c0-3.4,2.8-5.6,6.5-5.6c3.7,0,6.5,2.2,6.5,5.6v0.6c0,3.4-2.8,5.7-6.5,5.7c-3.7,0-6.5-2.3-6.5-5.7
		V15.2z M147.9,33.8c0-3.2,2.5-5.8,5.7-5.8c3.2,0,5.8,2.5,5.8,5.8v39.5c0,3.2-2.5,5.7-5.8,5.7c-3.1,0-5.7-2.5-5.7-5.7V33.8z"/>
	<path class="st1" d="M172.1,33.8c0-3.2,2.5-5.8,5.7-5.8c3.2,0,5.8,2.5,5.8,5.8v2.5c3.2-4.6,7.8-8.7,15.6-8.7
		c11.2,0,17.8,7.6,17.8,19.1v26.6c0,3.2-2.5,5.7-5.7,5.7c-3.2,0-5.8-2.5-5.8-5.7V50.1c0-7.7-3.9-12.2-10.7-12.2
		c-6.6,0-11.2,4.6-11.2,12.4v22.9c0,3.2-2.5,5.7-5.8,5.7c-3.1,0-5.7-2.5-5.7-5.7V33.8z"/>
	<path class="st1" d="M231.4,89.3c-2-0.8-3.2-2.4-3.2-4.5c0-2.5,2.2-4.7,4.8-4.7c0.8,0,1.5,0.2,2.1,0.5c4.5,2.5,9.5,4,15.3,4
		c10.2,0,15.8-5.3,15.8-15.3v-3.9c-4.2,5.4-9.4,9.2-17.6,9.2c-11.7,0-22.7-8.7-22.7-23.3V51c0-14.7,11-23.4,22.7-23.4
		c8.4,0,13.6,3.9,17.5,8.5v-2.4c0-3.1,2.6-5.7,5.7-5.7c3.2,0,5.8,2.5,5.8,5.8v34.5c0,8.4-2.2,14.6-6.3,18.8
		c-4.5,4.5-11.5,6.7-20.5,6.7C243.7,93.8,237.4,92.3,231.4,89.3z M266.2,51.1v-0.2c0-8.1-6.7-13.7-14.6-13.7s-14.2,5.5-14.2,13.7
		v0.2c0,8.1,6.3,13.7,14.2,13.7C259.5,64.8,266.2,59.2,266.2,51.1z"/>
</g>
<path class="st1" d="M497.5,104h-176c-9.9,0-18-8.1-18-18V18c0-9.9,8.1-18,18-18h176c9.9,0,18,8.1,18,18v68
	C515.5,95.9,507.4,104,497.5,104z"/>
<g>
	<path class="st2" d="M376.3,77.3V43.1H376l-13.8,33.7h-6.7l-13.8-33.7h-0.3v34.2h-9.4V26.7h12.3l14.4,35.9h0.3l14.4-35.9h12.3v50.6
		H376.3z"/>
	<path class="st2" d="M407.9,77.3l-17-50.6h11.9l11.6,39.7h0.2l11.6-39.7h11.5l-17,50.6H407.9z"/>
	<path class="st2" d="M440.6,52c0-16.3,9.3-26.2,24-26.2c12.2,0,21.4,7.7,22.3,19.1h-10.3c-1-6.2-5.8-10.3-11.9-10.3
		c-8,0-13.2,6.7-13.2,17.4c0,10.8,5.1,17.5,13.2,17.5c6.3,0,10.8-3.7,11.9-9.7h10.3c-1.2,11.3-9.9,18.5-22.3,18.5
		C449.8,78.2,440.6,68.3,440.6,52z"/>
</g>
</svg>
