<?xml version="1.0" standalone="no"?>
<!DOCTYPE svg PUBLIC "-//W3C//DTD SVG 20010904//EN"
 "http://www.w3.org/TR/2001/REC-SVG-20010904/DTD/svg10.dtd">
<svg version="1.0" xmlns="http://www.w3.org/2000/svg"
 width="360.000000pt" height="264.000000pt" viewBox="0 0 360.000000 264.000000"
 preserveAspectRatio="xMidYMid meet">

<g transform="translate(0.000000,264.000000) scale(0.100000,-0.100000)"
fill="#000000" stroke="none">
<path d="M3170 2385 l0 -234 -52 32 c-47 30 -58 32 -137 32 -74 0 -90 -3 -119
-24 -48 -34 -110 -116 -122 -161 -7 -26 -10 -284 -8 -772 3 -730 3 -733 25
-773 29 -56 103 -121 149 -134 82 -23 160 -10 222 37 l32 24 6 -31 7 -31 198
0 199 0 0 1135 0 1135 -200 0 -200 0 0 -235z m-12 -507 c9 -9 12 -150 12 -575
l0 -563 -24 -11 c-17 -8 -29 -8 -45 0 l-21 12 0 548 c0 540 0 549 21 575 22
28 39 32 57 14z"/>
<path d="M348 2473 c-37 -63 -63 -78 -151 -83 l-82 -5 -5 -41 c-7 -49 -32 -90
-60 -99 -26 -8 -26 -45 0 -52 20 -5 20 -14 20 -829 0 -726 -2 -824 -15 -824
-20 0 -21 -76 -1 -87 8 -5 16 -27 18 -53 l3 -45 65 2 c36 2 74 7 85 13 11 5
70 11 130 12 l110 3 3 383 2 382 58 0 c82 0 215 18 254 35 46 19 134 86 169
128 80 97 113 217 113 407 0 114 -4 144 -22 194 -21 57 -60 118 -92 143 -23
18 54 17 116 -2 27 -8 52 -15 57 -15 4 0 7 92 7 206 l0 205 -37 16 c-62 26
-146 21 -237 -16 -104 -42 -266 -81 -338 -81 -51 0 -59 3 -84 33 -15 17 -33
47 -41 65 -16 39 -24 40 -45 5z m665 -10 c-7 -2 -19 -2 -25 0 -7 3 -2 5 12 5
14 0 19 -2 13 -5z m82 -23 c3 -6 -1 -7 -9 -4 -18 7 -21 14 -7 14 6 0 13 -4 16
-10z m-489 -525 c50 -21 64 -61 64 -190 0 -156 -28 -205 -118 -205 -79 0 -82
5 -82 130 0 61 2 110 5 110 29 0 101 -63 124 -107 20 -39 33 -27 25 25 -11 79
-42 120 -123 164 -39 21 -39 56 -1 75 33 17 63 16 106 -2z m-511 -1394 c-3 -6
-14 -10 -23 -10 -15 1 -15 2 1 6 9 2 17 9 17 15 0 6 3 9 6 5 3 -3 3 -10 -1
-16z m4 -90 c0 -9 -5 -4 -11 12 -5 15 -14 27 -19 27 -5 0 -9 6 -9 13 1 6 10 1
20 -12 11 -13 20 -31 19 -40z"/>
<path d="M1200 1260 l0 -920 195 0 195 0 0 723 c0 549 3 726 12 735 18 18 46
14 58 -7 7 -13 10 -261 10 -735 l0 -716 200 0 200 0 0 730 0 730 25 6 c57 14
55 46 55 -742 l0 -724 190 0 190 0 0 768 c0 827 -1 835 -53 925 -37 63 -108
122 -162 136 -29 7 -218 11 -579 11 l-536 0 0 -920z"/>
<path d="M267 279 c-28 -17 -47 -65 -47 -121 0 -87 49 -145 100 -118 66 35 67
204 1 240 -24 12 -31 12 -54 -1z m51 -21 c19 -19 16 -182 -4 -199 -11 -9 -20
-10 -32 -2 -13 8 -18 29 -20 98 -3 86 5 115 32 115 7 0 17 -5 24 -12z"/>
<path d="M557 283 c-11 -10 -8 -101 3 -108 6 -4 10 17 10 54 0 62 -1 66 -13
54z"/>
<path d="M846 274 c-40 -39 -26 -103 29 -135 38 -23 47 -57 20 -79 -20 -17
-43 -6 -51 25 -9 37 -24 31 -24 -10 0 -23 4 -35 13 -34 6 1 21 -2 31 -6 28
-12 66 35 66 81 0 35 -16 56 -69 94 -15 11 -19 21 -15 38 9 33 41 28 58 -10
l14 -33 1 38 c1 21 -3 36 -8 32 -5 -3 -12 -1 -16 5 -9 15 -31 12 -49 -6z"/>
<path d="M1148 270 c-77 -60 -36 -256 49 -234 29 8 63 74 63 124 0 40 -34 120
-51 120 -4 0 -14 2 -21 5 -8 3 -26 -3 -40 -15z m62 -19 c5 -11 10 -52 10 -91
0 -79 -11 -110 -39 -110 -26 0 -31 19 -31 110 0 43 3 85 6 94 8 22 41 20 54
-3z"/>
<path d="M1310 262 c-32 -33 -45 -85 -35 -139 6 -36 53 -93 75 -93 6 0 24 13
40 28 52 52 48 168 -7 211 -33 27 -39 26 -73 -7z m71 -22 c4 -14 7 -50 7 -80
0 -76 -9 -104 -36 -108 -29 -4 -42 30 -42 108 0 78 13 112 42 108 14 -2 25
-13 29 -28z"/>
<path d="M2607 272 c-10 -11 -17 -35 -17 -60 0 -38 4 -44 40 -68 39 -26 47
-45 34 -78 -10 -26 -43 -19 -55 11 -10 26 -25 42 -40 43 -4 0 -10 -12 -14 -27
-7 -31 -21 -43 -47 -43 -15 0 -18 9 -18 56 0 49 2 55 15 44 8 -7 15 -19 15
-27 0 -8 5 -11 10 -8 12 8 13 95 1 95 -5 0 -11 -9 -14 -20 -10 -39 -27 -20
-27 30 0 43 3 50 20 50 12 0 28 -13 40 -32 l20 -33 0 38 0 37 -72 -1 c-40 0
-67 -3 -60 -6 8 -3 12 -36 12 -113 0 -77 -4 -110 -12 -113 -7 -3 20 -6 60 -6
51 -1 72 3 72 12 0 9 3 8 9 -2 5 -7 13 -11 19 -7 6 3 13 2 17 -4 10 -16 33
-12 55 10 14 14 20 33 20 64 0 37 -5 48 -31 70 -17 14 -35 26 -40 26 -6 0 -9
12 -7 27 4 41 36 43 51 4 15 -41 27 -39 27 5 0 28 -3 35 -15 31 -8 -4 -17 -2
-20 3 -10 15 -30 12 -48 -8z"/>
<path d="M2733 282 c-18 -12 -32 -55 -26 -86 4 -17 20 -37 44 -53 22 -14 39
-34 39 -44 0 -55 -44 -69 -63 -19 -15 40 -27 38 -27 -6 0 -27 4 -35 14 -31 7
3 18 1 24 -5 16 -16 52 1 63 29 5 13 9 38 9 54 0 29 -8 38 -71 93 -16 13 -17
21 -9 36 16 30 39 24 55 -12 l14 -33 1 38 c0 21 -4 36 -9 32 -5 -3 -12 -1 -16
5 -7 12 -25 13 -42 2z"/>
<path d="M3178 271 c-50 -40 -57 -162 -13 -211 40 -44 84 -33 112 28 l17 37 4
-34 c2 -21 -2 -37 -10 -42 -8 -5 16 -9 60 -9 l72 0 0 43 c0 31 -3 38 -10 27
-5 -8 -10 -22 -10 -31 0 -17 -19 -29 -46 -29 -10 0 -14 14 -14 50 0 54 10 64
28 28 9 -20 11 -15 11 32 0 47 -2 52 -11 33 -18 -37 -28 -27 -28 28 0 46 2 50
22 47 12 -2 28 -13 34 -26 18 -37 24 -37 24 1 l0 37 -72 -1 c-40 0 -67 -3 -60
-6 8 -3 12 -28 12 -74 l0 -69 -47 0 c-44 -1 -46 -2 -29 -15 13 -10 17 -21 12
-39 -7 -29 -40 -36 -50 -10 -9 24 -7 177 3 192 13 22 44 10 61 -23 l15 -30 3
33 c4 40 5 38 -34 46 -22 5 -37 2 -56 -13z"/>
<path d="M53 273 c15 -4 17 -18 17 -113 0 -95 -2 -109 -17 -113 -10 -3 7 -5
37 -6 35 -1 64 5 77 14 50 35 45 187 -8 215 -10 6 -42 9 -71 9 -29 -1 -45 -3
-35 -6z m109 -59 c14 -80 -12 -172 -46 -161 -11 4 -22 178 -12 204 4 9 12 10
28 4 16 -6 25 -19 30 -47z"/>
<path d="M373 273 c15 -4 17 -18 17 -113 0 -95 -2 -109 -17 -113 -10 -3 -2 -5
17 -6 22 0 30 2 22 7 -9 6 -12 34 -10 101 l3 92 45 -101 c24 -56 48 -104 52
-106 4 -3 8 49 8 115 0 86 3 121 13 124 6 3 -4 5 -23 5 -19 0 -27 -2 -17 -5
14 -4 17 -16 17 -64 0 -32 -2 -59 -5 -59 -3 0 -18 29 -34 65 -29 64 -30 65
-68 64 -21 -1 -30 -3 -20 -6z"/>
<path d="M590 239 c0 -24 4 -38 10 -34 6 3 10 14 10 24 0 18 18 41 32 41 4 0
8 -49 8 -109 0 -96 -2 -110 -17 -114 -10 -3 5 -5 32 -5 28 0 44 2 38 5 -9 3
-13 36 -13 114 0 114 7 128 34 66 l14 -32 1 43 1 42 -75 0 -75 0 0 -41z"/>
<path d="M943 273 c15 -4 17 -18 17 -113 0 -95 -2 -109 -17 -113 -10 -3 4 -5
31 -6 43 -1 47 1 32 12 -13 10 -17 24 -14 57 3 41 6 45 31 48 27 3 27 2 27
-52 0 -34 -5 -56 -12 -59 -7 -3 10 -5 37 -5 28 0 42 2 33 5 -16 4 -18 18 -18
113 0 95 2 109 18 113 9 3 -5 5 -33 5 -27 0 -44 -2 -37 -5 7 -3 12 -24 12 -54
0 -48 -1 -49 -30 -49 -29 0 -30 2 -30 45 0 31 5 47 18 54 13 8 5 10 -33 10
-27 -1 -42 -3 -32 -6z"/>
<path d="M1430 239 c0 -24 4 -38 10 -34 6 3 10 14 10 24 0 18 18 41 32 41 4 0
8 -49 8 -109 0 -96 -2 -110 -17 -114 -10 -3 5 -5 32 -6 38 0 46 2 33 10 -15 8
-18 25 -18 108 0 54 3 101 7 104 10 10 33 -13 33 -34 0 -10 5 -21 10 -24 6 -4
10 10 10 34 l0 41 -75 0 -75 0 0 -41z"/>
<path d="M1657 273 c-10 -10 -8 -73 2 -73 5 0 11 13 14 29 3 16 13 31 21 34
14 6 16 -8 16 -103 0 -95 -2 -109 -17 -113 -10 -3 5 -5 32 -5 28 0 44 2 38 5
-9 3 -13 36 -13 114 0 115 8 129 36 65 l13 -31 1 43 0 42 -68 0 c-38 0 -72 -3
-75 -7z"/>
<path d="M1823 273 c15 -4 17 -18 17 -113 0 -95 -2 -109 -17 -113 -10 -3 5 -5
32 -5 28 0 44 2 38 5 -8 3 -13 25 -13 59 0 51 1 54 25 54 24 0 25 -3 25 -54 0
-34 -5 -56 -12 -59 -7 -3 42 -6 110 -6 l122 -1 0 41 c0 24 -4 38 -10 34 -5 -3
-10 -14 -10 -24 0 -22 -19 -41 -42 -41 -15 0 -18 9 -18 50 0 28 5 50 10 50 6
0 10 -6 10 -14 0 -8 5 -18 10 -21 6 -4 10 13 10 44 0 53 -12 67 -26 29 -6 -18
-8 -13 -11 26 -2 26 -2 51 1 54 12 12 56 -18 56 -38 0 -12 5 -18 10 -15 6 3
10 19 10 36 l0 29 -122 -1 c-68 0 -117 -3 -110 -6 7 -3 12 -24 12 -54 0 -46
-2 -49 -25 -49 -23 0 -25 3 -25 49 0 30 5 51 13 54 6 3 -10 5 -38 5 -27 0 -42
-2 -32 -5z m207 -113 l0 -110 -30 0 -30 0 0 110 0 110 30 0 30 0 0 -110z"/>
<path d="M2233 273 c15 -4 17 -18 17 -113 0 -95 -2 -109 -17 -113 -10 -3 0 -5
22 -5 22 0 32 2 23 5 -16 4 -18 16 -17 91 l1 87 21 -92 c11 -51 24 -93 28 -93
4 0 15 35 24 77 23 108 23 108 24 16 1 -56 -3 -83 -11 -86 -7 -3 7 -5 32 -5
25 0 39 2 33 5 -9 3 -13 36 -13 113 0 77 4 110 13 113 6 3 -4 6 -24 6 l-35 1
-15 -72 -16 -73 -12 60 c-18 87 -16 85 -58 84 -21 -1 -30 -3 -20 -6z"/>
<path d="M2823 273 c15 -4 17 -18 17 -113 0 -95 -2 -109 -17 -113 -10 -3 17
-5 60 -6 l77 -1 0 41 c0 24 -4 38 -10 34 -5 -3 -10 -14 -10 -24 0 -22 -19 -41
-42 -41 -15 0 -18 9 -18 50 0 28 5 50 10 50 6 0 10 -6 10 -14 0 -8 5 -18 10
-21 6 -4 10 13 10 44 0 53 -12 67 -26 29 -6 -18 -8 -13 -11 26 -2 26 -2 50 1
53 11 12 47 -11 52 -33 8 -32 27 -16 22 17 -3 23 -7 24 -78 26 -41 0 -67 -1
-57 -4z"/>
<path d="M2983 269 c14 -8 17 -25 17 -109 0 -84 -3 -101 -17 -109 -15 -9 -12
-10 17 -11 22 0 30 3 22 8 -9 6 -12 34 -10 101 l3 92 45 -101 c24 -56 48 -104
52 -106 4 -3 8 49 8 115 0 86 3 121 13 124 6 3 -4 5 -23 5 -19 0 -27 -2 -17
-5 14 -4 17 -16 17 -64 0 -32 -2 -59 -5 -59 -3 0 -18 29 -34 65 -29 64 -31 65
-68 65 -31 -1 -35 -3 -20 -11z"/>
<path d="M3438 273 c8 -3 12 -36 12 -113 0 -77 -4 -110 -12 -113 -7 -3 7 -5
32 -5 25 0 39 2 33 5 -15 6 -18 113 -3 113 14 0 30 -35 30 -69 0 -42 38 -78
55 -51 3 5 2 10 -3 10 -5 0 -12 21 -15 47 -3 26 -12 52 -20 57 -13 8 -12 12 5
26 23 18 27 62 8 85 -9 11 -31 15 -74 14 -33 0 -55 -3 -48 -6z m90 -51 c3 -37
1 -42 -17 -42 -18 0 -21 6 -21 46 0 38 3 45 18 42 12 -2 18 -15 20 -46z"/>
</g>
</svg>
