<svg xmlns="http://www.w3.org/2000/svg" width="600.905" height="250.068">
  <rect width="100%" height="100%" fill="none"/>
  <g class="currentLayer">
    <path fill="#5382a1" d="M59.21 192.102s-9.428 5.483 6.71 7.338c19.551 2.23 29.543 1.91 51.089-2.167 0 0 5.664 3.552 13.575 6.628-48.299 20.7-109.313-1.199-71.374-11.799M53.308 165.09s-10.574 7.828 5.576 9.498c20.885 2.155 37.378 2.33 65.918-3.165 0 0 3.947 4.002 10.154 6.19C76.56 194.69 11.52 178.96 53.308 165.09"/>
    <path fill="#f8981d" d="M103.063 119.271c11.9 13.702-3.127 26.032-3.127 26.032s30.219-15.6 16.34-35.134c-12.96-18.217-22.9-27.269 30.91-58.476 0 0-84.462 21.095-44.123 67.577"/>
    <g fill="#5382a1">
      <path d="M166.943 212.085s6.977 5.75-7.684 10.197c-27.879 8.445-116.036 10.996-140.521.336-8.803-3.83 7.705-9.144 12.898-10.26 5.416-1.174 8.51-.955 8.51-.955-9.79-6.897-63.279 13.542-27.17 19.395 98.474 15.97 179.511-7.19 153.968-18.713M63.744 137.107s-44.841 10.65-15.88 14.518c12.23 1.637 36.607 1.267 59.314-.636 18.558-1.565 37.192-4.894 37.192-4.894s-6.544 2.803-11.278 6.035c-45.536 11.976-133.506 6.405-108.176-5.845 21.417-10.353 38.831-9.178 38.831-9.178M144.187 182.067c46.289-24.053 24.887-47.169 9.948-44.055-3.661.762-5.294 1.423-5.294 1.423s1.36-2.13 3.955-3.051c29.554-10.39 52.282 30.644-9.54 46.896 0 0 .717-.64.93-1.213"/>
    </g>
    <path fill="#f8981d" d="M116.277 1.3s25.635 25.645-24.315 65.079c-40.055 31.632-9.134 49.668-.016 70.277-23.382-21.094-40.538-39.667-29.027-56.95 16.897-25.37 63.7-37.67 53.359-78.404"/>
    <g fill="#5382a1">
      <path d="M68.29 247.25c44.432 2.845 112.665-1.577 114.28-22.601 0 0-3.106 7.97-36.72 14.3-37.924 7.136-84.695 6.303-112.438 1.729 0 0 5.679 4.7 34.88 6.573"/>
      <g stroke-width="0">
        <path d="M287.089 195.035c-5.267 4.568-10.829 7.132-15.82 7.132-7.125 0-10.974-4.272-10.974-11.124 0-7.412 4.124-12.831 20.67-12.831h6.123v16.823m14.532 16.395V160.68c0-12.965-7.394-21.52-25.223-21.52-10.408 0-19.525 2.57-26.935 5.848l2.138 8.983c5.835-2.141 13.387-4.135 20.8-4.135 10.27 0 14.689 4.135 14.689 12.684v6.415h-5.126c-24.953 0-36.21 9.686-36.21 24.225 0 12.547 7.419 19.68 21.385 19.68 8.978 0 15.68-3.707 21.944-9.131l1.138 7.703h11.4zM350.117 211.427h-18.124l-21.812-70.989h15.827l13.535 43.615 3.009 13.117c6.847-18.964 11.69-38.205 14.112-56.731h15.396c-4.125 23.375-11.548 49.032-21.942 70.989M419.643 195.035c-5.276 4.568-10.848 7.132-15.84 7.132-7.112 0-10.97-4.272-10.97-11.124 0-7.412 4.133-12.831 20.677-12.831h6.133v16.823m14.53 16.395V160.68c0-12.965-7.413-21.52-25.22-21.52-10.416 0-19.537 2.57-26.944 5.848l2.136 8.983c5.837-2.141 13.404-4.135 20.81-4.135 10.263 0 14.688 4.135 14.688 12.684v6.415h-5.134c-24.96 0-36.212 9.686-36.212 24.225 0 12.547 7.412 19.68 21.376 19.68 8.983 0 15.682-3.707 21.958-9.131l1.141 7.703h11.4zM229.825 223.483c-4.142 6.049-10.833 10.834-18.158 13.541l-7.175-8.443c5.576-2.86 10.358-7.48 12.58-11.785 1.921-3.827 2.716-8.76 2.716-20.557v-81.043h15.44v79.933c-.002 15.77-1.263 22.142-5.403 28.354"/>
      </g>
    </g>
    <path fill="#f8981d" d="M471.014 104.655c18.562 0 37.137-.013 55.7 0v13.962c-12.58.012-25.158-.013-37.736.012 0 11.357-.013 22.702 0 34.058 10.36.013 20.707-.012 31.066 0v13.451c-10.36.025-20.707 0-31.066.013v36.576c12.79.013 25.593-.012 38.384.013v14.112h-56.348v-112.2zM542.9 104.655h55.7v13.962c-12.579.012-25.157 0-37.736.012 0 11.357-.012 22.702 0 34.058 10.36.013 20.707 0 31.067 0v13.451c-10.36.025-20.707 0-31.067.013v36.576c12.791.013 25.594-.012 38.384.013v14.112h-56.347v-112.2z"/>
  </g>
</svg>
