<?xml version="1.0" encoding="utf-8"?>
<!-- Svg Vector Icons : http://www.onlinewebfonts.com/icon -->
<!DOCTYPE svg PUBLIC "-//W3C//DTD SVG 1.1//EN" "http://www.w3.org/Graphics/SVG/1.1/DTD/svg11.dtd">
<svg version="1.1" xmlns="http://www.w3.org/2000/svg" xmlns:xlink="http://www.w3.org/1999/xlink" x="0px" y="0px" viewBox="0 0 1000 1000" enable-background="new 0 0 1000 1000" xml:space="preserve">
<metadata> Svg Vector Icons : http://www.onlinewebfonts.com/icon </metadata>
<g><g id="_x35_151e0c8492e5103c096af88a51e787d"><path d="M990,545c-6.5,27-16.6,49.5-30.5,67.6c-13.9,18.1-31.1,31.7-51.7,40.9c-20.6,9.2-46.8,13.8-78.6,13.8c-38.6,0-70.1-5.6-94.6-16.8c-24.5-11.2-45.6-30.9-63.4-59.2c-17.8-28.2-26.6-64.4-26.6-108.5c0-58.7,15.6-103.9,46.9-135.4C722.7,315.8,766.9,300,824,300c44.7,0,79.9,9.1,105.5,27.1c25.6,18.1,44.6,45.9,57,83.3l-96.9,21.6c-3.4-10.8-6.9-18.7-10.7-23.7c-6.1-8.4-13.7-14.9-22.5-19.4c-8.9-4.5-18.8-6.8-29.8-6.8c-24.9,0-43.9,10-57.2,30c-10,14.8-15,38.2-15,69.9c0,39.4,6,66.3,17.9,81c12,14.6,28.8,21.9,50.4,21.9c21,0,36.9-5.9,47.6-17.7c10.7-11.8,18.5-28.9,23.4-51.4L990,545z M223.2,405.4c4.4,17.8,6.6,37.8,6.6,60c0,25.4-3,47.4-9,65.9c-6,18.5-14.1,33.8-24.3,45.8c-10.2,12.1-22.1,21-35.8,26.9c-13.7,5.8-28.1,8.8-43.2,8.8c-18.2,0-34.1-3.3-47.6-9.9c-13.5-6.6-24.7-16.1-33.6-28.5C27.4,562,20.8,546.9,16.5,529c-4.3-17.8-6.5-38-6.5-60.4c0-25.1,3-47,8.9-65.5c5.9-18.5,14-33.8,24.2-45.8c10.2-12.1,22.1-21,35.7-26.9c13.6-5.9,28-8.8,43.1-8.8c18.2,0,34.1,3.3,47.6,10c13.5,6.6,24.7,16.1,33.7,28.5C212.1,372.5,218.8,387.6,223.2,405.4z M189.7,468.2c0-16.6-1.3-31.8-3.8-45.6c-2.5-13.8-6.6-25.7-12.3-35.7c-5.6-10-12.9-17.7-21.8-23.2c-8.9-5.5-19.6-8.2-32.2-8.2c-12.1,0-22.6,2.9-31.3,8.8c-8.7,5.9-15.9,13.8-21.6,23.8c-5.6,10-9.8,21.8-12.6,35.3c-2.7,13.5-4.1,27.9-4.1,43c0,16.8,1.3,32,3.9,45.9c2.6,13.8,6.7,25.6,12.3,35.5c5.6,9.9,12.7,17.6,21.6,23.1c8.8,5.5,19.4,8.2,31.9,8.2c12.1,0,22.6-2.9,31.4-8.8c8.8-5.9,16.1-13.8,21.8-23.9c5.7-10,9.9-21.8,12.7-35.2C188.3,497.9,189.7,483.6,189.7,468.2z M442.6,496.2c0,18.1-2.5,34.2-7.5,48.5c-5,14.2-12.1,26.3-21.3,36.2c-9.2,9.9-20.3,17.5-33.5,22.8c-13.2,5.3-28,7.9-44.4,7.9c-12.9,0-26-1.2-39.5-3.7c-13.4-2.5-26.7-6.3-39.9-11.7V302.6h37.7V387l-1.7,40.3c10.8-14.6,22.4-24.9,34.8-30.9c12.3-6,25.6-9,39.8-9c12.4,0,23.3,2.6,32.7,7.8c9.4,5.2,17.3,12.5,23.6,22c6.4,9.5,11.1,20.9,14.3,34.3C441,464.8,442.6,479.7,442.6,496.2z M404,497.9c0-11.4-0.8-21.9-2.5-31.4c-1.7-9.5-4.3-17.7-7.9-24.5c-3.6-6.8-8.2-12.1-13.9-15.9c-5.6-3.8-12.4-5.7-20.2-5.7c-4.8,0-9.6,0.8-14.5,2.3c-4.9,1.5-10,4-15.3,7.6c-5.3,3.5-10.8,8.2-16.7,14.1c-5.8,5.9-12.1,13.1-18.8,21.8v105.6c7.4,2.9,14.9,5.2,22.5,6.8c7.7,1.7,15,2.5,21.9,2.5c8.7,0,16.9-1.4,24.8-4.1c7.9-2.7,14.8-7.3,20.8-13.8c6-6.4,10.8-15,14.3-25.6C402.2,526.9,404,513.7,404,497.9z M450.5,422.5h106.7v183.8c0,20.2-4.7,35.6-14.1,46c-9.4,10.4-22.3,15.6-38.8,15.6c-5.2,0-10.6-0.3-16-1c-5.5-0.6-11-1.6-16.4-2.9c-5.4-1.3-10.7-2.9-15.8-4.8c-5.1-1.9-9.9-4-14.4-6.3v36c8.2,3.5,17.5,6.2,27.6,8.1c10.2,1.9,20.6,2.9,31.3,2.9c14.7,0,28-2.1,39.8-6.3c11.8-4.2,21.7-10.3,29.8-18.4c8.1-8.1,14.3-18,18.6-29.8c4.3-11.8,6.5-25.3,6.5-40.4V391.3H450.5V422.5z M593.7,308.7c-2.7-2.7-5.8-4.9-9.4-6.4c-3.6-1.5-7.5-2.3-11.7-2.3c-4.2,0-8.1,0.8-11.7,2.3c-3.6,1.5-6.8,3.7-9.4,6.4c-2.7,2.7-4.8,5.9-6.3,9.5c-1.5,3.6-2.3,7.4-2.3,11.5c0,4.2,0.8,8.1,2.3,11.6c1.5,3.5,3.6,6.7,6.3,9.4c2.7,2.7,5.8,4.9,9.4,6.4c3.6,1.5,7.5,2.3,11.7,2.3c4.2,0,8.1-0.8,11.7-2.3c3.6-1.5,6.8-3.6,9.4-6.4c2.7-2.7,4.8-5.9,6.3-9.4c1.5-3.5,2.3-7.4,2.3-11.6c0-4-0.8-7.9-2.3-11.5C598.4,314.6,596.3,311.4,593.7,308.7z"/></g></g>
</svg>