<?xml version="1.0" encoding="UTF-8" standalone="no"?>
<svg
   width="2440"
   height="650"
   viewBox="0 0 188.13 50.116738"
   version="1.1"
   id="svg35025"
   sodipodi:docname="fastobjects-2-logo-svg-vector-2.svg"
   inkscape:version="1.1.2 (0a00cf5339, 2022-02-04, custom)"
   xmlns:inkscape="http://www.inkscape.org/namespaces/inkscape"
   xmlns:sodipodi="http://sodipodi.sourceforge.net/DTD/sodipodi-0.dtd"
   xmlns="http://www.w3.org/2000/svg"
   xmlns:svg="http://www.w3.org/2000/svg">
  <defs
     id="defs35029" />
  <sodipodi:namedview
     id="namedview35027"
     pagecolor="#ffffff"
     bordercolor="#666666"
     borderopacity="1.0"
     inkscape:pageshadow="2"
     inkscape:pageopacity="0.0"
     inkscape:pagecheckerboard="0"
     showgrid="false"
     width="2499px"
     inkscape:zoom="0.22781041"
     inkscape:cx="1165.4428"
     inkscape:cy="790.13071"
     inkscape:window-width="1920"
     inkscape:window-height="1017"
     inkscape:window-x="1920"
     inkscape:window-y="0"
     inkscape:window-maximized="1"
     inkscape:current-layer="svg35025" />
  <g
     fill-rule="evenodd"
     clip-rule="evenodd"
     id="g35023"
     transform="translate(-3.7857321,-72.59199)">
    <path
       fill="#ffffff"
       fill-opacity="0"
       d="M 0,0 H 192.756 V 192.756 H 0 Z"
       id="path35011" />
    <path
       d="m 184.252,88.867 h -0.725 v -2.775 l 0.061,-0.905 -0.24,0.724 -0.906,2.957 h -0.723 l -0.846,-2.957 -0.24,-0.724 0.059,0.905 v 2.775 h -0.723 v -4.465 h 1.025 l 1.146,3.5 1.086,-3.5 h 1.025 v 4.465 z m -6.094,0 h -0.783 v -3.801 h -1.449 v -0.664 h 3.621 v 0.664 h -1.389 z"
       fill="#1c4882"
       id="path35013" />
    <path
       d="m 68.354,92.547 c 2.474,-6.094 7.904,-11.162 12.61,-11.886 h -0.362 c -5.49,0 -12.066,5.309 -14.721,11.946 -2.655,6.637 -0.302,12.006 5.188,12.006 0.241,0 0.543,-0.061 0.784,-0.061 -4.465,-0.421 -6.033,-5.609 -3.499,-12.005 z"
       fill="#c1342c"
       id="path35015" />
    <path
       d="m 90.315,92.306 c 3.378,-8.447 1.086,-15.445 -5.129,-16.411 h 0.483 c 8.205,0 11.946,7.36 8.266,16.531 -3.62,9.111 -13.213,16.47 -21.418,16.47 h -1.146 c 7.119,-0.603 15.444,-7.781 18.944,-16.59 z"
       fill="#1c4882"
       id="path35017" />
    <path
       fill="#c1342c"
       d="m 16.709,86.876 -1.629,4.163 h 5.189 l -1.026,2.594 h -5.188 l -2.716,6.818 H 8.504 l 6.455,-16.169 h 9.111 l -1.026,2.594 z m 13.213,6.938 h -3.439 l 4.042,-5.853 z m 2.232,6.637 1.146,-16.169 h -2.534 l -11.825,16.169 h 2.957 l 2.835,-3.982 h 4.887 l -0.423,3.982 z M 48.022,88.143 c -1.267,-0.784 -2.354,-1.207 -3.379,-1.207 -1.267,0 -2.353,0.604 -2.715,1.508 -0.302,0.724 -0.121,1.146 0.724,1.75 1.689,1.327 2.775,2.354 3.137,3.077 0.362,0.724 0.302,1.75 -0.121,2.896 -1.146,2.896 -3.74,4.585 -6.999,4.585 a 7.57,7.57 0 0 1 -1.267,-0.121 c -1.026,-0.119 -1.448,-0.301 -2.655,-1.086 -0.181,-0.119 -0.422,-0.301 -0.784,-0.482 l 2.353,-2.836 c 0.784,0.604 1.146,0.846 1.628,1.086 0.604,0.303 1.388,0.484 1.931,0.484 1.328,0 2.414,-0.664 2.775,-1.63 0.302,-0.664 0.121,-1.146 -0.604,-1.75 l -1.689,-1.388 c -1.931,-1.629 -2.353,-2.715 -1.629,-4.525 0.302,-0.784 0.905,-1.628 1.508,-2.232 0.362,-0.422 0.905,-0.845 1.568,-1.207 1.388,-0.784 2.414,-1.086 4.103,-1.086 0.966,0 1.81,0.121 2.595,0.422 0.664,0.242 0.965,0.423 1.75,0.966 z m 10.437,-1.267 -5.43,13.575 h -2.775 l 5.37,-13.575 h -4.405 l 1.026,-2.594 h 11.644 l -1.026,2.594 z"
       id="path35019" />
    <path
       d="m 106.906,88.987 c -0.543,1.328 -1.689,2.112 -3.258,2.112 h -1.689 l 1.689,-4.163 h 1.811 c 1.447,0 1.99,0.724 1.447,2.051 z m 0.543,7.3 c 1.025,-2.473 0.24,-4.102 -1.932,-4.163 1.146,-0.06 1.871,-0.362 2.836,-1.146 0.846,-0.664 1.51,-1.629 1.871,-2.534 0.422,-1.086 0.422,-2.232 0,-2.896 -0.482,-0.845 -1.328,-1.086 -3.258,-1.086 h -5.311 L 95.2,100.63 h 5.972 c 2.959,0.001 5.191,-1.507 6.277,-4.343 z m -2.896,-0.301 c -0.361,0.844 -1.025,1.569 -1.75,1.872 -0.543,0.24 -0.965,0.301 -1.869,0.301 h -1.811 l 1.811,-4.465 h 1.811 c 1.747,-0.001 2.351,0.784 1.808,2.292 z m 4.886,8.145 a 45.39,45.39 0 0 1 -2.352,2.232 l -1.449,-1.568 c 1.268,-1.328 1.568,-1.629 2.172,-2.354 0.965,-1.207 1.629,-2.354 2.354,-4.102 l 5.551,-13.877 h 2.775 l -6.637,16.653 c -0.964,1.387 -1.388,1.93 -2.414,3.016 z m 7.301,-3.5 6.455,-16.169 h 8.991 l -1.086,2.595 h -6.155 l -1.568,4.042 h 5.008 l -1.026,2.594 h -5.068 l -1.689,4.284 h 6.455 l -1.086,2.654 z m 27.694,-12.488 c -0.664,-0.724 -1.689,-1.086 -2.957,-1.086 -2.836,0 -5.732,2.172 -6.998,5.249 -1.389,3.5 -0.182,5.731 3.016,5.731 1.086,0 2.051,-0.18 3.561,-0.725 l -0.543,2.596 c -1.086,0.422 -1.508,0.604 -2.293,0.783 -0.785,0.182 -1.568,0.242 -2.475,0.242 -2.291,0 -3.68,-0.604 -4.523,-1.99 -0.967,-1.57 -0.906,-3.923 0.119,-6.457 0.906,-2.353 2.596,-4.525 4.646,-6.094 2.111,-1.568 4.043,-2.232 6.455,-2.232 1.871,0 3.197,0.483 4.043,1.569 z m 10.437,-1.086 -5.432,13.574 h -2.834 l 5.43,-13.574 h -4.404 l 1.025,-2.595 h 11.645 l -1.026,2.595 z m 15.022,1.267 c -1.266,-0.784 -2.352,-1.146 -3.379,-1.146 -1.326,0 -2.412,0.543 -2.775,1.448 -0.24,0.724 -0.059,1.146 0.785,1.75 1.689,1.328 2.775,2.353 3.137,3.077 0.363,0.724 0.303,1.81 -0.119,2.896 -1.146,2.896 -3.742,4.586 -7,4.586 -0.482,0 -0.904,-0.061 -1.326,-0.061 -0.967,-0.182 -1.389,-0.361 -2.596,-1.146 -0.18,-0.121 -0.422,-0.301 -0.783,-0.482 l 2.293,-2.836 c 0.844,0.604 1.205,0.846 1.689,1.086 0.604,0.303 1.326,0.482 1.93,0.482 1.268,0 2.414,-0.604 2.775,-1.629 0.301,-0.664 0.121,-1.146 -0.604,-1.75 l -1.689,-1.388 c -1.99,-1.629 -2.354,-2.715 -1.629,-4.464 a 6.495,6.495 0 0 1 1.447,-2.292 8.319,8.319 0 0 1 1.57,-1.207 c 1.447,-0.784 2.473,-1.086 4.162,-1.086 0.965,0 1.811,0.181 2.594,0.422 0.604,0.242 0.967,0.422 1.75,0.965 z m -53.635,26.365 h 1.086 v -0.303 h 0.061 c 0.24,0.182 0.604,0.424 1.086,0.424 1.266,0 1.75,-1.027 1.75,-2.293 0,-1.508 -0.785,-2.293 -1.689,-2.293 -0.543,0 -0.846,0.24 -1.146,0.482 h -0.061 v -1.99 h -1.086 v 5.973 z m 1.086,-3.197 c 0.24,-0.242 0.543,-0.482 0.904,-0.482 0.543,0 0.846,0.541 0.846,1.508 0,0.965 -0.303,1.508 -0.846,1.508 -0.422,0 -0.723,-0.301 -0.904,-0.482 z m 10.256,-1.146 h -1.146 l -0.301,1.447 c -0.121,0.482 -0.242,0.965 -0.303,1.629 h -0.059 a 10.463,10.463 0 0 0 -0.484,-1.629 l -0.482,-1.447 h -1.205 l 1.688,4.162 -0.119,0.785 c -0.121,0.24 -0.182,0.482 -0.303,0.604 -0.121,0.18 -0.24,0.24 -0.422,0.24 -0.121,0 -0.303,0 -0.361,-0.061 -0.121,-0.061 -0.242,-0.121 -0.303,-0.18 l -0.24,0.723 c 0.119,0.061 0.24,0.121 0.422,0.121 0.18,0.061 0.361,0.121 0.543,0.121 0.482,0 0.844,-0.182 1.086,-0.422 0.24,-0.242 0.482,-0.725 0.664,-1.207 z m 10.679,4.343 v -2.293 h 0.543 c 1.387,0 2.172,-0.543 2.172,-1.99 0,-1.207 -0.604,-1.871 -2.111,-1.871 h -1.75 v 6.154 z m 0,-3.138 v -2.23 h 0.604 c 0.604,0 0.965,0.301 0.965,1.145 0,0.846 -0.361,1.146 -1.025,1.146 z m 10.135,0.967 c 0,-1.629 -0.904,-2.293 -2.051,-2.293 -1.147,0 -1.99,0.664 -1.99,2.293 0,1.447 0.604,2.293 1.99,2.293 1.328,0 1.99,-0.846 1.99,-2.293 z m -2.051,1.568 c -0.482,0 -0.844,-0.422 -0.844,-1.568 0,-1.146 0.422,-1.568 0.844,-1.568 0.482,0 0.904,0.422 0.904,1.568 0.001,1.086 -0.361,1.568 -0.904,1.568 z m 9.594,-1.328 c 0,-0.844 -0.182,-1.508 -0.604,-1.99 a 1.78,1.78 0 0 0 -1.328,-0.543 c -0.604,0 -1.025,0.182 -1.387,0.543 -0.363,0.361 -0.543,0.965 -0.543,1.75 0,0.844 0.18,1.387 0.543,1.75 0.361,0.422 0.904,0.543 1.387,0.543 0.604,0 1.025,-0.182 1.328,-0.424 0.301,-0.24 0.482,-0.543 0.604,-0.783 l -1.146,-0.061 c -0.182,0.422 -0.422,0.604 -0.785,0.604 -0.422,0 -0.723,-0.303 -0.783,-1.389 z m -2.715,-0.604 c 0.061,-0.965 0.422,-1.266 0.783,-1.266 0.422,0 0.725,0.422 0.785,1.266 z m 6.877,-1.808 h -0.543 v 0.723 h 0.543 v 2.232 c 0,1.086 0.482,1.51 1.389,1.51 0.422,0 0.723,-0.121 1.025,-0.242 l -0.182,-0.725 c -0.182,0.121 -0.361,0.242 -0.604,0.242 -0.361,0 -0.543,-0.303 -0.543,-1.025 v -1.992 h 0.965 v -0.723 h -0.965 v -0.967 h -1.086 v 0.967 z"
       fill="#1c4882"
       id="path35021" />
  </g>
</svg>
