<?xml version="1.0" encoding="utf-8"?>
<!-- Generator: Adobe Illustrator 21.0.0, SVG Export Plug-In . SVG Version: 6.00 Build 0)  -->
<svg version="1.1" id="Layer_1" xmlns="http://www.w3.org/2000/svg" xmlns:xlink="http://www.w3.org/1999/xlink" x="0px" y="0px"
	 viewBox="0 0 90.6 56.9" style="enable-background:new 0 0 90.6 56.9;" xml:space="preserve">
<style type="text/css">
	.st0{fill:#0067B4;}
	.st1{fill:#7E5DA1;}
	.st2{fill:#FFFFFF;}
</style>
<g>
	<g>
		<rect y="4.2" class="st0" width="15.9" height="2.3"/>
		<rect y="0" class="st0" width="15.9" height="2.3"/>
		<rect x="4.5" y="8.7" class="st0" width="7.2" height="2.3"/>
		<rect x="4.5" y="13.3" class="st0" width="7.2" height="2.3"/>
		<rect x="4.5" y="17.5" class="st0" width="7.2" height="2.3"/>
		<rect x="4.5" y="22" class="st0" width="7.2" height="2.3"/>
		<rect y="26.6" class="st0" width="15.9" height="2.3"/>
		<rect y="31.1" class="st0" width="15.9" height="2.3"/>
		<rect x="22.4" y="22" class="st0" width="7.2" height="2.3"/>
		<rect x="51.3" y="22" class="st0" width="7.2" height="2.3"/>
		<rect x="51.3" y="17.5" class="st0" width="7.2" height="2.3"/>
		<rect x="73.7" y="22" class="st0" width="7.2" height="2.3"/>
		<rect x="73.7" y="17.5" class="st0" width="7.2" height="2.3"/>
		<rect x="73.7" y="26.6" class="st0" width="11.4" height="2.3"/>
		<rect x="73.7" y="31.1" class="st0" width="11.4" height="2.3"/>
		<rect x="46.7" y="26.6" class="st0" width="11.4" height="2.3"/>
		<rect x="46.7" y="31.1" class="st0" width="11.4" height="2.3"/>
		<rect x="22.4" y="8.7" class="st0" width="7.2" height="2.3"/>
		<polygon class="st0" points="58.8,0 46.7,0 46.7,1.9 60,1.9 		"/>
		<polygon class="st0" points="60.7,4.2 46.7,4.2 46.7,6.5 61.4,6.5 		"/>
		<polygon class="st0" points="62.6,8.7 51.3,8.7 51.3,11 63.3,11 		"/>
		<polygon class="st0" points="64.2,13.3 51.3,13.3 51.3,15.6 65.3,15.6 		"/>
		<polygon class="st0" points="72.4,17.5 59.7,17.5 60.4,19.8 71.7,19.8 		"/>
		<polygon class="st0" points="61.4,22 70.7,22 69.8,24.3 62.3,24.3 		"/>
		<polygon class="st0" points="63,26.6 69.1,26.6 67.9,28.9 64.2,28.9 		"/>
		<polygon class="st0" points="64.9,31.1 67.2,31.1 66.5,33.4 65.6,33.4 		"/>
		<polygon class="st0" points="73,0 85,0 85,1.9 71.7,1.9 		"/>
		<polygon class="st0" points="71,4.2 85,4.2 85,6.5 70.2,6.5 		"/>
		<polygon class="st0" points="69.5,8.7 80.5,8.7 80.5,11 68.4,11 		"/>
		<polygon class="st0" points="67.5,13.3 80.8,13.3 80.8,15.6 66.5,15.6 		"/>
		<path class="st0" d="M34.8,33.4H18v-2.3h23.6C40.6,31.8,37.6,33.4,34.8,33.4z"/>
		<path class="st0" d="M44.4,26.6H18.2v2.3h25.4C44.1,28,44.4,27.3,44.4,26.6L44.4,26.6z"/>
		<path class="st0" d="M44.1,22h-7.5v2.3h8C44.8,23.8,44.4,22.7,44.1,22z"/>
		<path class="st0" d="M40.6,17.5H22.7v2.3h20.5C42.9,19.2,41.3,17.8,40.6,17.5z"/>
		<path class="st0" d="M42.9,13.3H22.4v2.3h17.8C41.3,15.2,42.5,14,42.9,13.3z"/>
		<path class="st0" d="M44.4,8.7h-7.5V11h7.2C44.4,10.5,44.4,9.4,44.4,8.7z"/>
		<path class="st0" d="M43.2,4.2H17.8v2.3h26.2C44.4,5.6,43.6,4.5,43.2,4.2L43.2,4.2z"/>
		<path class="st0" d="M18.2,0v2.3h23.1C40.6,1.9,37.8,0,34.5,0L18.2,0z"/>
	</g>
</g>
<g>
	<g>
		<path class="st0" d="M90.6,31.3c0,1.2-0.9,2.1-2.2,2.1c-1.2,0-2.2-0.9-2.2-2.1c0-1.2,1-2.1,2.2-2.1C89.6,29.2,90.6,30.1,90.6,31.3
			z M86.8,31.3c0,0.9,0.7,1.7,1.6,1.7c0.9,0,1.6-0.7,1.6-1.7c0-0.9-0.7-1.7-1.6-1.7S86.8,30.4,86.8,31.3z M88.1,32.4h-0.5v-2.1
			c0.2,0,0.5-0.1,0.8-0.1c0.4,0,0.6,0.1,0.7,0.2c0.1,0.1,0.2,0.3,0.2,0.5c0,0.2-0.2,0.4-0.4,0.5v0c0.2,0.1,0.3,0.2,0.4,0.5
			c0.1,0.3,0.1,0.5,0.2,0.5h-0.5c-0.1-0.1-0.1-0.3-0.2-0.5c0-0.2-0.2-0.3-0.4-0.3h-0.2L88.1,32.4L88.1,32.4z M88.1,31.2h0.2
			c0.3,0,0.5-0.1,0.5-0.3c0-0.2-0.1-0.3-0.5-0.3c-0.1,0-0.2,0-0.3,0L88.1,31.2L88.1,31.2z"/>
	</g>
</g>
<rect y="36.9" class="st1" width="84.8" height="20"/>
<g>
	<path class="st2" d="M5,51.6L2.5,40.8h2.6l0.8,4.5c0.2,1.3,0.5,2.7,0.6,3.8h0c0.2-1.2,0.4-2.5,0.7-3.8l0.9-4.4h2.6l0.9,4.5
		c0.2,1.3,0.4,2.4,0.6,3.6h0c0.2-1.2,0.4-2.5,0.6-3.7l0.9-4.4h2.5l-2.8,10.8h-2.6L9.9,47c-0.2-1.1-0.4-2.1-0.5-3.3h0
		C9.2,44.9,9,45.9,8.7,47l-1,4.6H5z"/>
	<path class="st2" d="M18.6,48.5c0.1,1,1.1,1.5,2.2,1.5c0.8,0,1.5-0.1,2.2-0.3l0.3,1.6c-0.8,0.3-1.8,0.5-2.8,0.5
		c-2.7,0-4.2-1.5-4.2-4c0-2,1.2-4.2,4-4.2c2.5,0,3.5,2,3.5,3.9c0,0.4,0,0.8-0.1,1H18.6z M21.5,46.8c0-0.6-0.3-1.6-1.4-1.6
		c-1,0-1.4,0.9-1.5,1.6H21.5z"/>
	<path class="st2" d="M25.1,51.6c0-0.5,0.1-1.5,0.1-2.3v-9h2.4v4.5h0c0.5-0.7,1.3-1.1,2.4-1.1c1.9,0,3.2,1.6,3.2,4
		c0,2.8-1.8,4.2-3.6,4.2c-0.9,0-1.8-0.3-2.4-1.3h0l-0.1,1.1H25.1z M27.6,48.3c0,0.2,0,0.3,0,0.4c0.2,0.7,0.7,1.2,1.4,1.2
		c1,0,1.7-0.8,1.7-2.2c0-1.2-0.5-2.2-1.7-2.2c-0.7,0-1.3,0.5-1.4,1.2c0,0.1,0,0.3,0,0.4V48.3z"/>
	<path class="st2" d="M34.8,49.5c0.4,0.3,1.4,0.6,2.1,0.6c0.7,0,1-0.3,1-0.7s-0.2-0.6-1.2-0.9c-1.6-0.5-2.2-1.4-2.2-2.4
		c0-1.5,1.2-2.6,3.2-2.6c0.9,0,1.7,0.2,2.2,0.4l-0.4,1.7c-0.4-0.2-1-0.4-1.7-0.4c-0.6,0-0.9,0.2-0.9,0.6c0,0.4,0.3,0.6,1.3,0.9
		c1.5,0.5,2.1,1.3,2.1,2.4c0,1.5-1.2,2.5-3.4,2.5c-1,0-1.9-0.2-2.5-0.5L34.8,49.5z"/>
	<path class="st2" d="M41.7,46.4c0-1,0-1.9-0.1-2.6h2.1l0.1,1.1h0c0.6-0.8,1.5-1.3,2.6-1.3c1.7,0,3.2,1.5,3.2,4
		c0,2.8-1.8,4.2-3.6,4.2c-0.9,0-1.7-0.4-2-0.9h0v3.9h-2.4V46.4z M44.2,48.2c0,0.2,0,0.4,0,0.5c0.2,0.7,0.7,1.2,1.4,1.2
		c1.1,0,1.7-0.9,1.7-2.2c0-1.2-0.6-2.2-1.6-2.2c-0.7,0-1.3,0.5-1.5,1.2c0,0.1,0,0.3,0,0.4V48.2z"/>
	<path class="st2" d="M51.3,40.2h2.4v4.5h0c0.3-0.3,0.6-0.6,1-0.8c0.4-0.2,0.8-0.3,1.3-0.3c1.6,0,2.7,1.1,2.7,3.4v4.6h-2.4v-4.3
		c0-1-0.4-1.7-1.3-1.7c-0.6,0-1,0.4-1.2,0.8c-0.1,0.2-0.1,0.4-0.1,0.5v4.6h-2.4V40.2z"/>
	<path class="st2" d="M62.6,48.5c0.1,1,1.1,1.5,2.2,1.5c0.8,0,1.5-0.1,2.2-0.3l0.3,1.6c-0.8,0.3-1.8,0.5-2.8,0.5
		c-2.7,0-4.2-1.5-4.2-4c0-2,1.2-4.2,4-4.2c2.5,0,3.5,2,3.5,3.9c0,0.4,0,0.8-0.1,1H62.6z M65.4,46.8c0-0.6-0.3-1.6-1.4-1.6
		c-1,0-1.4,0.9-1.5,1.6H65.4z"/>
	<path class="st2" d="M69.1,46.4c0-1.2,0-1.9-0.1-2.6h2.1l0.1,1.4h0.1c0.4-1.1,1.4-1.6,2.1-1.6c0.2,0,0.3,0,0.5,0v2.3
		c-0.2,0-0.4-0.1-0.7-0.1c-0.9,0-1.5,0.5-1.7,1.2c0,0.2,0,0.4,0,0.5v4h-2.4V46.4z"/>
	<path class="st2" d="M77,48.5c0.1,1,1.1,1.5,2.2,1.5c0.8,0,1.5-0.1,2.2-0.3l0.3,1.6c-0.8,0.3-1.8,0.5-2.8,0.5c-2.7,0-4.2-1.5-4.2-4
		c0-2,1.2-4.2,4-4.2c2.5,0,3.5,2,3.5,3.9c0,0.4,0,0.8-0.1,1H77z M79.8,46.8c0-0.6-0.3-1.6-1.4-1.6c-1,0-1.4,0.9-1.5,1.6H79.8z"/>
</g>
</svg>
