<?xml version="1.0" encoding="UTF-8" standalone="no"?>
<svg
   version="1.0"
   width="910.000000pt"
   height="144.000000pt"
   viewBox="0 0 910.000000 144.000000"
   preserveAspectRatio="xMidYMid meet"
   id="svg416"
   sodipodi:docname="easymock-logo.svg"
   inkscape:version="1.1.2 (0a00cf5339, 2022-02-04, custom)"
   xmlns:inkscape="http://www.inkscape.org/namespaces/inkscape"
   xmlns:sodipodi="http://sodipodi.sourceforge.net/DTD/sodipodi-0.dtd"
   xmlns:xlink="http://www.w3.org/1999/xlink"
   xmlns="http://www.w3.org/2000/svg"
   xmlns:svg="http://www.w3.org/2000/svg">
  <defs
     id="defs420">
    <linearGradient
       id="linearGradient34111"
       inkscape:swatch="solid">
      <stop
         style="stop-color:#000000;stop-opacity:1;"
         offset="0"
         id="stop34109" />
    </linearGradient>
    <linearGradient
       id="linearGradient34105"
       inkscape:swatch="solid">
      <stop
         style="stop-color:#000000;stop-opacity:1;"
         offset="0"
         id="stop34103" />
    </linearGradient>
    <linearGradient
       id="linearGradient34099"
       inkscape:swatch="solid">
      <stop
         style="stop-color:#000000;stop-opacity:1;"
         offset="0"
         id="stop34097" />
    </linearGradient>
    <linearGradient
       id="linearGradient34093"
       inkscape:swatch="solid">
      <stop
         style="stop-color:#000000;stop-opacity:1;"
         offset="0"
         id="stop34091" />
    </linearGradient>
    <linearGradient
       id="linearGradient34087"
       inkscape:swatch="solid">
      <stop
         style="stop-color:#000000;stop-opacity:1;"
         offset="0"
         id="stop34085" />
    </linearGradient>
    <linearGradient
       id="linearGradient34081"
       inkscape:swatch="solid">
      <stop
         style="stop-color:#000000;stop-opacity:1;"
         offset="0"
         id="stop34079" />
    </linearGradient>
    <linearGradient
       id="linearGradient34075"
       inkscape:swatch="solid">
      <stop
         style="stop-color:#000000;stop-opacity:1;"
         offset="0"
         id="stop34073" />
    </linearGradient>
    <linearGradient
       id="linearGradient34069"
       inkscape:swatch="solid">
      <stop
         style="stop-color:#000000;stop-opacity:1;"
         offset="0"
         id="stop34067" />
    </linearGradient>
    <linearGradient
       id="linearGradient34063"
       inkscape:swatch="solid">
      <stop
         style="stop-color:#000000;stop-opacity:1;"
         offset="0"
         id="stop34061" />
    </linearGradient>
    <linearGradient
       id="linearGradient34057"
       inkscape:swatch="solid">
      <stop
         style="stop-color:#000000;stop-opacity:1;"
         offset="0"
         id="stop34055" />
    </linearGradient>
    <linearGradient
       id="linearGradient33879"
       inkscape:swatch="solid">
      <stop
         style="stop-color:#02246f;stop-opacity:1;"
         offset="0"
         id="stop33877" />
    </linearGradient>
    <linearGradient
       id="linearGradient33654"
       inkscape:swatch="solid">
      <stop
         style="stop-color:#000000;stop-opacity:1;"
         offset="0"
         id="stop33652" />
    </linearGradient>
    <linearGradient
       id="linearGradient33600"
       inkscape:swatch="solid">
      <stop
         style="stop-color:#000000;stop-opacity:1;"
         offset="0"
         id="stop33598" />
    </linearGradient>
    <linearGradient
       id="linearGradient33436"
       inkscape:swatch="solid">
      <stop
         style="stop-color:#000000;stop-opacity:1;"
         offset="0"
         id="stop33434" />
    </linearGradient>
    <linearGradient
       id="linearGradient33384"
       inkscape:swatch="solid">
      <stop
         style="stop-color:#000000;stop-opacity:1;"
         offset="0"
         id="stop33382" />
    </linearGradient>
    <linearGradient
       id="linearGradient33264"
       inkscape:swatch="solid">
      <stop
         style="stop-color:#a40f12;stop-opacity:1;"
         offset="0"
         id="stop33262" />
    </linearGradient>
    <linearGradient
       inkscape:collect="always"
       xlink:href="#linearGradient33264"
       id="linearGradient33266"
       x1="4620.7907"
       y1="728.5"
       x2="5768.5713"
       y2="728.5"
       gradientUnits="userSpaceOnUse" />
    <linearGradient
       inkscape:collect="always"
       xlink:href="#linearGradient33264"
       id="linearGradient33386"
       x1="4530"
       y1="730"
       x2="5855"
       y2="730"
       gradientUnits="userSpaceOnUse" />
    <linearGradient
       inkscape:collect="always"
       xlink:href="#linearGradient33264"
       id="linearGradient33388"
       x1="6220"
       y1="729.5"
       x2="6570"
       y2="729.5"
       gradientUnits="userSpaceOnUse" />
    <linearGradient
       inkscape:collect="always"
       xlink:href="#linearGradient33264"
       id="linearGradient33390"
       x1="6030"
       y1="734"
       x2="6761"
       y2="734"
       gradientUnits="userSpaceOnUse" />
    <linearGradient
       inkscape:collect="always"
       xlink:href="#linearGradient33264"
       id="linearGradient33392"
       x1="6940"
       y1="609.10059"
       x2="7811.2578"
       y2="609.10059"
       gradientUnits="userSpaceOnUse" />
    <linearGradient
       inkscape:collect="always"
       xlink:href="#linearGradient33264"
       id="linearGradient33394"
       x1="7999.0874"
       y1="720"
       x2="8940"
       y2="720"
       gradientUnits="userSpaceOnUse" />
    <linearGradient
       inkscape:collect="always"
       xlink:href="#linearGradient33264"
       id="linearGradient33438"
       x1="5941.3916"
       y1="730.30096"
       x2="6850"
       y2="730.30096"
       gradientUnits="userSpaceOnUse" />
    <linearGradient
       inkscape:collect="always"
       xlink:href="#linearGradient33264"
       id="linearGradient33440"
       x1="7029.9092"
       y1="734.70764"
       x2="7730"
       y2="734.70764"
       gradientUnits="userSpaceOnUse" />
    <linearGradient
       inkscape:collect="always"
       xlink:href="#linearGradient33264"
       id="linearGradient33442"
       x1="8190"
       y1="1329.7688"
       x2="8368.2598"
       y2="1329.7688"
       gradientUnits="userSpaceOnUse" />
    <linearGradient
       inkscape:collect="always"
       xlink:href="#linearGradient33264"
       id="linearGradient33444"
       x1="7930"
       y1="719.81238"
       x2="9030.3311"
       y2="719.81238"
       gradientUnits="userSpaceOnUse" />
    <linearGradient
       inkscape:collect="always"
       xlink:href="#linearGradient33264"
       id="linearGradient33602"
       x1="8280.3242"
       y1="980"
       x2="8620"
       y2="980"
       gradientUnits="userSpaceOnUse" />
    <linearGradient
       inkscape:collect="always"
       xlink:href="#linearGradient33264"
       id="linearGradient33604"
       x1="7913.3086"
       y1="819.5199"
       x2="8059.1431"
       y2="819.5199"
       gradientUnits="userSpaceOnUse" />
    <linearGradient
       inkscape:collect="always"
       xlink:href="#linearGradient33264"
       id="linearGradient33606"
       x1="7909"
       y1="275.17197"
       x2="8050"
       y2="275.17197"
       gradientUnits="userSpaceOnUse" />
    <linearGradient
       inkscape:collect="always"
       xlink:href="#linearGradient33264"
       id="linearGradient33608"
       x1="7915.8325"
       y1="1292.3213"
       x2="8187.9351"
       y2="1292.3213"
       gradientUnits="userSpaceOnUse" />
    <linearGradient
       inkscape:collect="always"
       xlink:href="#linearGradient33264"
       id="linearGradient33610"
       x1="6940.894"
       y1="1231.9543"
       x2="7810.6328"
       y2="1231.9543"
       gradientUnits="userSpaceOnUse" />
    <linearGradient
       inkscape:collect="always"
       xlink:href="#linearGradient33264"
       id="linearGradient33612"
       x1="6790.7388"
       y1="849.5"
       x2="6850"
       y2="849.5"
       gradientUnits="userSpaceOnUse" />
    <linearGradient
       inkscape:collect="always"
       xlink:href="#linearGradient33264"
       id="linearGradient33656"
       x1="8590"
       y1="1225"
       x2="8628.2119"
       y2="1225"
       gradientUnits="userSpaceOnUse" />
    <linearGradient
       inkscape:collect="always"
       xlink:href="#linearGradient33264"
       id="linearGradient33658"
       x1="8513.3584"
       y1="1291.4023"
       x2="8589.0107"
       y2="1291.4023"
       gradientUnits="userSpaceOnUse" />
    <linearGradient
       inkscape:collect="always"
       xlink:href="#linearGradient33264"
       id="linearGradient33660"
       x1="8390"
       y1="1280.9314"
       x2="8419.333"
       y2="1280.9314"
       gradientUnits="userSpaceOnUse" />
    <linearGradient
       inkscape:collect="always"
       xlink:href="#linearGradient33264"
       id="linearGradient33662"
       x1="8361.7402"
       y1="1208.0323"
       x2="8399.0156"
       y2="1208.0323"
       gradientUnits="userSpaceOnUse" />
    <linearGradient
       inkscape:collect="always"
       xlink:href="#linearGradient33879"
       id="linearGradient33881"
       x1="2470"
       y1="733.76287"
       x2="3180"
       y2="733.76287"
       gradientUnits="userSpaceOnUse" />
    <linearGradient
       inkscape:collect="always"
       xlink:href="#linearGradient33879"
       id="linearGradient33883"
       x1="1210"
       y1="733.43053"
       x2="2200"
       y2="733.43053"
       gradientUnits="userSpaceOnUse" />
    <linearGradient
       inkscape:collect="always"
       xlink:href="#linearGradient33879"
       id="linearGradient33885"
       x1="158"
       y1="714.79314"
       x2="941"
       y2="714.79314"
       gradientUnits="userSpaceOnUse" />
    <linearGradient
       inkscape:collect="always"
       xlink:href="#linearGradient33879"
       id="linearGradient33887"
       x1="450"
       y1="1170"
       x2="940"
       y2="1170"
       gradientUnits="userSpaceOnUse" />
    <linearGradient
       inkscape:collect="always"
       xlink:href="#linearGradient33879"
       id="linearGradient33889"
       x1="69.953246"
       y1="714.87218"
       x2="1030.1521"
       y2="714.87218"
       gradientUnits="userSpaceOnUse" />
    <linearGradient
       inkscape:collect="always"
       xlink:href="#linearGradient33879"
       id="linearGradient33891"
       x1="1120.1463"
       y1="711.94546"
       x2="2290"
       y2="711.94546"
       gradientUnits="userSpaceOnUse" />
    <linearGradient
       inkscape:collect="always"
       xlink:href="#linearGradient33879"
       id="linearGradient33893"
       x1="2380"
       y1="729"
       x2="3270"
       y2="729"
       gradientUnits="userSpaceOnUse" />
    <linearGradient
       inkscape:collect="always"
       xlink:href="#linearGradient33879"
       id="linearGradient33895"
       x1="3870.4202"
       y1="823.52864"
       x2="4439.5938"
       y2="823.52864"
       gradientUnits="userSpaceOnUse" />
    <linearGradient
       inkscape:collect="always"
       xlink:href="#linearGradient33879"
       id="linearGradient33897"
       x1="3361.9163"
       y1="1112.5516"
       x2="3888.5"
       y2="1112.5516"
       gradientUnits="userSpaceOnUse" />
    <linearGradient
       inkscape:collect="always"
       xlink:href="#linearGradient33879"
       id="linearGradient33899"
       x1="3450"
       y1="722.5"
       x2="4351"
       y2="722.5"
       gradientUnits="userSpaceOnUse" />
    <linearGradient
       inkscape:collect="always"
       xlink:href="#linearGradient33879"
       id="linearGradient33901"
       x1="3580"
       y1="475"
       x2="4150.4508"
       y2="475"
       gradientUnits="userSpaceOnUse" />
    <linearGradient
       inkscape:collect="always"
       xlink:href="#linearGradient33879"
       id="linearGradient34065"
       x1="1801.9153"
       y1="1248.0815"
       x2="1947"
       y2="1248.0815"
       gradientUnits="userSpaceOnUse" />
    <linearGradient
       inkscape:collect="always"
       xlink:href="#linearGradient33879"
       id="linearGradient34071"
       x1="1691.3512"
       y1="1343.2887"
       x2="1786.9418"
       y2="1343.2887"
       gradientUnits="userSpaceOnUse" />
    <linearGradient
       inkscape:collect="always"
       xlink:href="#linearGradient33879"
       id="linearGradient34077"
       x1="1572.17"
       y1="1340"
       x2="1606.9868"
       y2="1340"
       gradientUnits="userSpaceOnUse" />
    <linearGradient
       inkscape:collect="always"
       xlink:href="#linearGradient33879"
       id="linearGradient34083"
       x1="1632.356"
       y1="1330"
       x2="1676.3243"
       y2="1330"
       gradientUnits="userSpaceOnUse" />
    <linearGradient
       inkscape:collect="always"
       xlink:href="#linearGradient33879"
       id="linearGradient34089"
       x1="1656.004"
       y1="1360.899"
       x2="1680"
       y2="1360.899"
       gradientUnits="userSpaceOnUse" />
    <linearGradient
       inkscape:collect="always"
       xlink:href="#linearGradient33879"
       id="linearGradient34095"
       x1="1600.0573"
       y1="1273.0105"
       x2="1630"
       y2="1273.0105"
       gradientUnits="userSpaceOnUse" />
    <linearGradient
       inkscape:collect="always"
       xlink:href="#linearGradient33879"
       id="linearGradient34101"
       x1="70"
       y1="1282.1309"
       x2="172.96854"
       y2="1282.1309"
       gradientUnits="userSpaceOnUse" />
    <linearGradient
       inkscape:collect="always"
       xlink:href="#linearGradient33879"
       id="linearGradient34107"
       x1="162.82127"
       y1="1203.6293"
       x2="209.76196"
       y2="1203.6293"
       gradientUnits="userSpaceOnUse" />
    <linearGradient
       inkscape:collect="always"
       xlink:href="#linearGradient33879"
       id="linearGradient34113"
       x1="160"
       y1="1151.7952"
       x2="180"
       y2="1151.7952"
       gradientUnits="userSpaceOnUse" />
    <linearGradient
       inkscape:collect="always"
       xlink:href="#linearGradient33879"
       id="linearGradient34123"
       gradientUnits="userSpaceOnUse"
       x1="1580"
       y1="880"
       x2="1820"
       y2="880" />
  </defs>
  <sodipodi:namedview
     id="namedview418"
     pagecolor="#ffffff"
     bordercolor="#666666"
     borderopacity="1.0"
     inkscape:pageshadow="2"
     inkscape:pageopacity="0.0"
     inkscape:pagecheckerboard="0"
     inkscape:document-units="pt"
     showgrid="false"
     inkscape:zoom="0.88483119"
     inkscape:cx="396.12076"
     inkscape:cy="67.809545"
     inkscape:window-width="1920"
     inkscape:window-height="1017"
     inkscape:window-x="1920"
     inkscape:window-y="0"
     inkscape:window-maximized="1"
     inkscape:current-layer="svg416" />
  <g
     transform="translate(0.000000,144.000000) scale(0.100000,-0.100000)"
     fill="#000000"
     stroke="none"
     id="g414">
    <path
       d="M1657 1373 c-3 -5 1 -14 9 -21 12 -10 14 -10 14 2 0 17 -16 30 -23 19z"
       id="path332"
       style="fill-opacity:1.0;fill:url(#linearGradient34089)" />
    <path
       d="M1763 1355 c-15 -10 -22 -12 -25 -4 -3 8 -10 8 -26 -2 -33 -21 -27 -29 22 -29 37 0 45 4 49 22 8 29 5 31 -20 13z"
       id="path334"
       style="fill-opacity:1.0;fill:url(#linearGradient34071)" />
    <path
       d="M1819 1361 c11 -7 10 -11 -5 -19 -17 -10 -17 -11 6 -30 14 -11 27 -16 28 -11 2 5 7 9 12 9 5 0 3 -14 -3 -31 -10 -25 -9 -35 6 -60 9 -17 17 -40 17 -52 0 -38 13 -49 42 -35 l25 12 -19 55 c-10 31 -25 59 -32 63 -8 4 -12 17 -9 27 5 21 -12 61 -27 61 -6 0 -10 -7 -10 -15 0 -17 -16 -20 -24 -6 -4 5 -1 11 6 13 14 5 2 28 -15 28 -8 0 -7 -3 2 -9z"
       id="path336"
       style="fill-opacity:1.0;fill:url(#linearGradient34065)" />
    <path
       d="M2603 1360 c-13 -5 -23 -14 -23 -20 0 -5 -5 -10 -11 -10 -6 0 -51 -40 -100 -89 l-89 -88 0 -167 c0 -107 4 -175 12 -189 22 -43 119 -145 152 -161 27 -13 70 -16 215 -16 l181 0 0 -98 c0 -126 -5 -132 -116 -132 -43 0 -84 4 -90 8 -7 4 -17 26 -23 49 -17 64 -37 73 -164 73 -107 0 -109 -1 -138 -29 -26 -27 -29 -35 -29 -99 0 -62 3 -73 30 -108 45 -57 170 -175 198 -185 13 -5 109 -9 213 -9 156 0 196 3 222 16 18 9 76 60 129 112 l98 96 -1 205 c0 153 -3 210 -13 223 -52 70 -133 149 -148 145 -9 -3 -19 1 -22 9 -3 8 -10 14 -16 14 -6 0 -8 -4 -5 -10 3 -5 2 -10 -4 -10 -5 0 -12 4 -15 8 -8 14 -116 14 -116 1 0 -9 -3 -9 -14 0 -7 6 -44 11 -82 10 -38 -1 -82 -1 -97 0 l-28 1 7 85 c7 86 2 100 -22 68 -8 -11 -13 -13 -14 -5 0 6 -4 12 -10 12 -6 0 -10 -40 -10 -100 0 -82 3 -100 15 -100 8 0 15 -4 15 -9 0 -6 68 -10 160 -10 116 0 160 4 160 12 0 7 4 6 10 -3 8 -13 13 -13 31 -1 20 12 24 11 43 -15 12 -15 36 -43 54 -62 64 -67 62 -61 62 -262 l0 -185 -82 -79 c-46 -43 -93 -85 -104 -93 -17 -11 -63 -14 -207 -13 -102 0 -191 3 -199 6 -7 4 -50 46 -96 95 l-83 88 3 58 3 58 95 3 c102 3 120 -5 120 -53 0 -12 13 -33 28 -48 27 -26 33 -27 134 -27 106 0 107 0 137 31 l31 31 0 132 c0 89 -4 136 -12 144 -9 9 -69 12 -208 12 l-197 0 -66 69 -67 69 -1 104 c-2 185 4 253 21 243 4 -3 24 13 43 34 20 22 38 37 41 33 3 -3 6 2 6 11 0 9 -4 19 -10 22 -13 8 -13 25 1 25 5 0 7 -5 4 -10 -10 -16 36 -7 66 13 21 14 57 17 220 20 211 3 229 2 229 -20 0 -8 5 -11 10 -8 6 3 10 0 10 -7 0 -10 2 -10 9 1 6 10 13 11 27 3 18 -10 18 -11 1 -17 -15 -6 -9 -16 38 -70 50 -57 55 -68 55 -109 l0 -46 -47 -1 c-72 -3 -77 -3 -90 -12 -6 -4 -15 -2 -19 4 -5 8 -8 8 -13 0 -5 -7 -14 -5 -28 8 -11 11 -24 17 -27 14 -3 -4 -6 3 -6 14 0 26 -26 50 -33 31 -3 -7 -6 -3 -6 10 -1 25 -12 27 -44 11 -16 -9 -22 -9 -25 0 -5 14 -120 15 -156 1 -31 -11 -34 -30 -7 -30 11 0 23 -4 26 -10 3 -5 46 -10 94 -10 72 0 91 -3 104 -18 10 -10 17 -24 17 -30 0 -30 45 -41 156 -40 112 1 154 13 138 39 -4 8 -3 10 4 5 7 -4 12 -3 12 3 0 5 -6 12 -12 15 -9 3 -7 8 6 17 14 9 16 13 5 20 -11 6 -11 12 1 34 13 24 13 28 -3 40 -9 7 -17 17 -17 23 0 6 -11 19 -25 30 -13 11 -21 22 -18 26 12 12 -13 6 -27 -6 -12 -11 -12 -10 -2 3 11 14 6 24 -27 60 -22 24 -41 48 -41 52 0 5 -5 5 -11 1 -6 -3 -15 0 -20 7 -7 11 -12 12 -29 2 -25 -17 -31 -16 -24 1 4 12 -27 14 -193 14 -109 0 -208 -4 -220 -8z m252 -28 c-3 -3 -11 0 -18 7 -9 10 -8 11 6 5 10 -3 15 -9 12 -12z m275 -472 c-8 -5 -19 -10 -25 -10 -5 0 -3 5 5 10 8 5 20 10 25 10 6 0 3 -5 -5 -10z m30 -48 c-20 -7 -40 7 -34 23 6 14 9 14 26 -2 12 -10 15 -19 8 -21z"
       id="path338"
       style="fill-opacity:1;fill:url(#linearGradient33893)" />
    <path
       d="M4620 1359 c0 -6 -9 -8 -20 -4 -13 4 -28 -2 -45 -19 -23 -23 -25 -32 -25 -116 0 -88 1 -92 30 -120 17 -17 37 -30 45 -30 16 0 16 -6 16 -380 0 -332 2 -307 -26 -314 -53 -13 -65 -38 -65 -131 0 -89 15 -137 45 -149 9 -3 102 -6 205 -6 183 0 190 1 216 23 26 22 27 28 28 121 1 95 0 99 -27 122 -16 13 -37 24 -48 24 -18 0 -19 9 -19 218 1 188 3 213 14 187 28 -63 147 -255 165 -264 33 -18 98 -24 134 -12 47 16 64 38 140 175 l66 119 3 -149 c2 -82 2 -177 0 -211 -3 -55 -5 -63 -23 -63 -11 0 -31 -11 -44 -25 -23 -22 -25 -32 -25 -110 0 -88 14 -137 44 -148 8 -3 92 -6 185 -6 171 -1 171 -1 171 22 1 19 2 20 13 7 18 -22 39 -18 62 10 16 20 20 39 20 105 0 91 -17 130 -60 141 l-25 6 0 187 c-1 102 -1 218 -1 256 -2 211 1 245 16 245 8 0 15 7 15 16 0 10 6 14 14 11 18 -7 28 16 21 51 -3 15 -2 21 1 15 13 -28 19 -9 19 60 -1 39 -4 82 -9 95 -8 25 -26 30 -26 7 0 -8 -5 -15 -11 -15 -7 0 -9 10 -7 24 3 16 0 27 -9 30 -25 10 -51 7 -56 -6 -4 -9 -8 -10 -14 -3 -12 15 -91 15 -121 -1 -21 -10 -27 -10 -39 2 -17 17 -95 12 -126 -9 -12 -8 -33 -37 -47 -63 -14 -27 -42 -75 -63 -106 -21 -32 -36 -62 -32 -68 3 -6 -1 -13 -9 -16 -23 -9 -19 -24 7 -25 17 -1 15 -3 -8 -8 -23 -5 -38 -19 -62 -60 l-32 -54 -17 37 c-10 20 -21 36 -26 36 -4 0 -8 6 -8 14 0 8 -3 16 -7 18 -5 2 -26 38 -48 81 -22 42 -43 77 -47 77 -5 0 -8 6 -8 14 0 7 -7 19 -15 26 -8 7 -15 20 -15 29 0 9 -12 31 -27 49 -23 27 -37 34 -80 39 -50 5 -53 4 -53 -16 0 -12 -4 -20 -10 -16 -5 3 -7 12 -3 20 3 9 -1 15 -11 15 -9 0 -16 -6 -16 -12 0 -9 -3 -10 -8 -2 -10 15 -121 17 -138 3 -10 -8 -14 -8 -14 0 0 6 -4 11 -10 11 -5 0 -10 -5 -10 -11z m337 -69 c0 0 -1 -8 -4 -18 -2 -10 3 -24 11 -31 9 -8 16 -20 16 -28 0 -7 9 -26 19 -41 10 -15 44 -73 76 -129 31 -57 60 -103 64 -103 4 0 8 -7 8 -14 0 -22 47 -88 52 -73 2 6 15 25 27 40 13 16 24 32 24 37 0 5 11 26 25 46 14 21 23 44 21 51 -3 7 3 17 13 23 17 9 34 35 84 133 17 33 18 40 6 48 -11 8 -11 9 3 7 9 -2 31 14 50 36 l33 38 150 -1 c157 -2 165 -4 165 -48 0 -13 6 -23 13 -24 10 0 10 -2 0 -6 -8 -2 -13 -22 -13 -44 0 -56 -15 -76 -55 -71 l-32 4 -2 -395 -1 -395 45 -6 c42 -7 45 -9 45 -37 0 -17 5 -40 11 -51 8 -15 8 -19 0 -14 -7 5 -11 -3 -12 -21 -1 -66 -5 -68 -124 -65 -75 3 -105 0 -100 -7 3 -6 2 -11 -4 -11 -5 0 -13 5 -16 10 -3 6 -26 10 -50 10 -24 0 -55 4 -68 9 -24 9 -25 12 -20 83 5 80 17 98 65 98 l28 0 -1 343 c-1 188 -4 332 -6 320 -3 -13 -8 -23 -13 -23 -5 0 -18 -16 -31 -36 -18 -30 -19 -38 -8 -45 11 -7 11 -9 -2 -9 -20 0 -53 -46 -40 -55 5 -3 17 -2 28 1 15 5 15 4 3 -5 -8 -6 -22 -11 -31 -11 -17 0 -43 -37 -118 -166 -42 -75 -54 -84 -101 -84 -46 0 -60 10 -87 63 -39 77 -73 126 -93 132 -13 4 -18 15 -18 33 1 15 -5 38 -11 51 -10 18 -18 21 -39 17 -26 -6 -26 -6 -8 9 16 12 18 19 8 40 -6 14 -19 25 -27 25 -12 0 -15 6 -10 20 4 11 2 20 -4 20 -6 0 -11 6 -11 14 0 8 -4 18 -10 21 -7 4 -10 -110 -10 -334 l0 -341 34 0 c50 0 66 -21 66 -88 0 -109 13 -102 -184 -102 -120 0 -176 4 -184 12 -16 16 -16 150 0 166 7 7 27 12 45 12 l33 0 0 394 0 393 -41 6 c-23 3 -45 10 -48 16 -9 14 -6 149 3 159 14 14 268 18 316 5 25 -7 46 -13 47 -13z m33 -10 c0 -5 -2 -10 -4 -10 -3 0 -8 5 -11 10 -3 6 -1 10 4 10 6 0 11 -4 11 -10z m200 -374 c0 -3 -4 -8 -10 -11 -5 -3 -10 -1 -10 4 0 6 5 11 10 11 6 0 10 -2 10 -4z m647 -717 c2 -16 -1 -19 -9 -11 -5 5 -7 15 -4 21 10 15 12 14 13 -10z m-87 -79 c0 -5 -2 -10 -4 -10 -3 0 -8 5 -11 10 -3 6 -1 10 4 10 6 0 11 -4 11 -10z"
       id="path340"
       style="fill-opacity:1.0;fill:url(#linearGradient33386)" />
    <path
       d="M4621 1220 l1 -60 36 -1 c20 -1 40 -1 45 0 4 0 7 -195 7 -434 0 -422 -1 -435 -19 -435 -11 0 -22 -6 -24 -12 -4 -10 -6 -10 -6 0 -1 6 -10 12 -21 12 -18 0 -20 -6 -19 -55 l2 -55 158 0 159 0 0 54 0 55 -47 3 -48 3 -3 314 c-2 237 -5 317 -15 323 -9 6 -9 8 1 8 10 0 12 22 11 90 -1 50 1 93 4 96 2 3 15 -12 28 -33 13 -21 27 -39 31 -41 4 -2 8 -10 8 -18 0 -8 17 -43 38 -78 20 -34 62 -106 92 -160 123 -217 112 -201 150 -201 31 0 39 6 68 50 18 28 35 61 39 75 3 14 17 38 30 53 12 16 23 37 23 48 0 13 4 18 12 13 8 -5 9 -2 5 10 -4 10 -1 19 8 22 8 4 15 12 15 20 0 8 4 14 9 14 10 0 27 43 30 80 1 13 2 13 11 0 6 -9 10 -10 10 -3 0 7 11 29 25 49 14 20 25 46 25 58 0 12 9 27 20 34 19 12 20 10 20 -83 0 -57 4 -95 10 -95 6 0 10 -6 10 -14 0 -9 8 -13 23 -9 21 4 21 4 2 -8 -11 -7 -25 -20 -32 -28 -14 -18 -14 -91 -1 -91 5 0 4 -8 -1 -17 -13 -25 -15 -473 -1 -473 5 0 10 -3 10 -7 0 -5 -25 -6 -55 -5 l-55 4 0 -56 0 -56 105 -1 c58 0 120 -1 138 -2 17 0 32 4 32 10 0 6 3 15 8 19 4 4 7 0 7 -9 0 -9 6 -17 13 -17 11 0 14 43 8 98 0 7 -16 12 -41 12 l-40 0 -1 113 c0 61 0 183 -1 269 0 129 -3 156 -14 151 -8 -3 -14 -8 -14 -12 0 -4 -9 -7 -20 -7 -15 0 -20 6 -18 21 2 13 9 19 21 17 16 -3 16 -1 -2 17 -26 26 -18 55 11 40 28 -15 38 3 38 68 0 48 -18 84 -28 55 -2 -7 -8 -12 -14 -12 -5 0 -6 9 -3 21 5 15 4 19 -4 15 -6 -4 -11 -1 -11 8 0 20 17 30 23 14 3 -8 6 -6 6 5 1 9 5 17 10 17 5 0 12 -8 14 -17 3 -10 5 10 6 45 1 47 5 62 15 62 8 0 18 -4 21 -10 3 -5 13 -10 21 -10 8 0 13 4 9 9 -3 6 2 14 10 19 12 6 15 20 13 48 l-3 39 -135 3 -135 2 -52 -83 c-29 -46 -55 -92 -59 -102 -4 -11 -10 -22 -14 -25 -11 -8 -80 -130 -80 -141 0 -5 -3 -9 -7 -9 -5 0 -13 -10 -19 -23 -33 -67 -68 -127 -73 -127 -3 1 -21 32 -40 69 -23 45 -39 67 -48 64 -8 -3 -13 2 -13 12 0 11 -5 15 -15 12 -8 -4 -17 -1 -21 5 -4 6 -3 8 2 5 6 -3 15 -2 22 1 8 6 5 20 -10 50 -12 23 -26 42 -30 42 -5 0 -6 -4 -3 -10 3 -5 1 -10 -5 -10 -6 0 -10 10 -9 23 3 27 -22 87 -44 106 -10 7 -17 21 -18 30 0 9 -13 36 -28 61 -22 36 -33 45 -57 46 -16 0 -35 -3 -41 -9 -9 -6 -13 -6 -13 1 0 13 -53 11 -62 -3 -5 -6 -8 -5 -8 3 0 8 -20 12 -64 12 l-65 0 0 -60z m1139 -4 c0 -2 -8 -10 -17 -17 -16 -13 -17 -12 -4 4 13 16 21 21 21 13z m-160 -26 c0 -19 -18 -19 -23 -1 -3 14 -1 18 9 14 8 -3 14 -9 14 -13z m-693 -42 c-3 -8 -6 -5 -6 6 -1 11 2 17 5 13 3 -3 4 -12 1 -19z m43 0 c0 -18 -2 -20 -9 -8 -6 8 -7 18 -5 22 9 14 14 9 14 -14z m620 2 c0 -5 -4 -10 -10 -10 -5 0 -10 5 -10 10 0 6 5 10 10 10 6 0 10 -4 10 -10z m-600 -61 c24 -20 24 -20 3 -14 -18 5 -23 2 -24 -12 0 -10 -3 -13 -6 -5 -2 6 -8 10 -13 7 -4 -3 -19 4 -31 16 l-24 21 23 -5 c12 -3 22 -1 22 4 0 15 24 10 50 -12z m-30 -63 c0 -3 -4 -8 -10 -11 -5 -3 -10 -1 -10 4 0 6 5 11 10 11 6 0 10 -2 10 -4z m394 -71 c-4 -8 -10 -15 -15 -15 -4 0 -6 7 -3 15 4 8 10 15 15 15 4 0 6 -7 3 -15z m-300 -16 c11 -10 8 -14 -20 -23 -16 -5 -26 0 -39 20 l-17 26 34 -7 c18 -4 37 -11 42 -16z m356 -21 c0 -12 -30 -37 -44 -38 -5 0 -3 6 3 13 6 8 8 17 4 21 -9 9 18 27 29 20 4 -3 8 -10 8 -16z m-590 2 c0 -5 -5 -10 -11 -10 -5 0 -7 5 -4 10 3 6 8 10 11 10 2 0 4 -4 4 -10z m515 -20 c3 -5 1 -10 -4 -10 -6 0 -11 5 -11 10 0 6 2 10 4 10 3 0 8 -4 11 -10z m-4 -53 c-10 -9 -11 -8 -5 6 3 10 9 15 12 12 3 -3 0 -11 -7 -18z m-171 -25 c0 -4 -9 -8 -20 -8 -11 0 -20 4 -20 8 0 4 9 8 20 8 11 0 20 -4 20 -8z m136 -30 c-4 -3 -11 0 -16 8 -15 24 -11 33 6 15 9 -9 13 -19 10 -23z m54 22 c0 -2 -7 -4 -15 -4 -8 0 -15 4 -15 10 0 5 7 7 15 4 8 -4 15 -8 15 -10z m-193 -52 c19 16 24 6 8 -16 -12 -16 -16 -16 -34 -4 -12 8 -18 18 -14 22 4 3 11 2 17 -4 6 -6 14 -6 23 2z m449 -21 c0 -11 -4 -17 -8 -15 -4 3 -8 12 -8 20 0 8 4 14 8 14 4 0 8 -9 8 -19z m-381 -1 c3 -5 1 -10 -4 -10 -6 0 -11 5 -11 10 0 6 2 10 4 10 3 0 8 -4 11 -10z m435 -4 c0 -3 -4 -8 -10 -11 -5 -3 -10 -1 -10 4 0 6 5 11 10 11 6 0 10 -2 10 -4z m-15 -46 c-3 -5 -12 -10 -18 -10 -7 0 -6 4 3 10 19 12 23 12 15 0z m25 -40 c0 -5 -7 -10 -16 -10 -8 0 -12 5 -9 10 3 6 10 10 16 10 5 0 9 -4 9 -10z m-73 -432 c-3 -8 -6 -5 -6 6 -1 11 2 17 5 13 3 -3 4 -12 1 -19z"
       id="path342"
       style="fill-opacity:1;fill:url(#linearGradient33266)" />
    <path
       d="M6155 1360 c-11 -4 -63 -51 -115 -104 l-95 -96 -3 -420 c-2 -281 1 -420 8 -420 5 0 10 -7 10 -15 0 -8 42 -59 94 -113 l94 -97 214 -3 c129 -2 227 1 248 7 37 11 154 115 209 185 l31 39 0 198 c0 121 -4 200 -10 204 -5 3 -10 15 -10 26 0 14 -6 19 -17 17 -16 -3 -18 -22 -20 -216 -2 -243 8 -214 -115 -330 l-77 -72 -214 0 -214 0 -79 86 c-44 47 -83 95 -89 107 -6 14 -8 161 -5 410 l5 387 85 88 85 87 213 3 212 3 95 -95 95 -96 0 -96 0 -95 28 3 c27 3 27 4 30 78 3 99 -4 133 -34 169 -20 24 -32 30 -57 27 -28 -4 -30 -3 -13 10 18 12 17 15 -15 49 -26 27 -40 34 -56 30 -25 -6 -30 4 -12 22 8 8 4 15 -12 27 -20 14 -57 16 -249 15 -124 0 -234 -4 -245 -9z m685 -254 c0 -3 -4 -8 -10 -11 -5 -3 -10 -1 -10 4 0 6 5 11 10 11 6 0 10 -2 10 -4z m-860 -300 c0 -3 -4 -8 -10 -11 -5 -3 -10 -1 -10 4 0 6 5 11 10 11 6 0 10 -2 10 -4z"
       id="path344"
       style="fill-opacity:1.0;fill:url(#linearGradient33438)" />
    <path
       d="M7054 1268 c-84 -83 -106 -110 -110 -139 -6 -35 -6 -36 25 -31 35 5 35 6 21 33 -6 11 -8 25 -4 31 5 8 9 6 13 -5 5 -14 15 -8 53 31 76 77 88 91 88 104 0 6 3 8 6 5 4 -3 16 0 28 8 16 12 61 15 216 15 l196 0 58 -65 c31 -36 64 -65 72 -65 8 0 12 -5 9 -10 -3 -6 0 -13 8 -16 8 -3 18 -20 21 -38 5 -26 11 -33 29 -32 31 1 39 56 8 56 -25 0 -36 16 -17 27 11 6 -4 27 -62 88 -43 45 -90 86 -105 93 -16 7 -71 12 -127 12 -90 0 -99 -2 -105 -20 -4 -11 -10 -18 -15 -15 -5 3 -7 11 -4 18 4 10 -19 14 -97 15 l-101 2 -104 -102z"
       id="path346"
       style="fill-opacity:1.0;fill:url(#linearGradient33610)" />
    <path
       d="M122 1343 c-18 -9 -32 -22 -32 -29 0 -8 -4 -14 -10 -14 -5 0 -10 -18 -10 -40 0 -22 4 -40 9 -40 5 0 17 -3 27 -7 12 -4 15 -3 10 5 -4 6 -2 21 4 32 8 15 8 20 -1 18 -6 -2 -14 3 -16 10 -3 7 1 10 11 6 19 -7 72 31 56 41 -6 3 -8 10 -5 15 10 17 -11 18 -43 3z"
       id="path348"
       style="fill-opacity:1.0;fill:url(#linearGradient34101)" />
    <path
       d="M206 1343 c-3 -7 1 -13 9 -13 8 0 15 -5 15 -11 0 -6 7 -8 16 -5 8 3 12 2 9 -4 -7 -11 58 -14 69 -3 10 10 46 11 40 1 -3 -4 2 -8 10 -8 9 0 16 6 16 13 0 8 3 8 9 -2 5 -8 16 -11 25 -8 18 7 22 27 5 27 -5 0 -7 5 -4 10 10 17 25 11 25 -9 0 -10 6 -21 14 -24 26 -10 478 -8 471 3 -3 6 0 7 9 4 9 -3 16 -12 16 -20 0 -8 4 -14 8 -14 4 0 6 -28 4 -61 -2 -39 1 -71 9 -86 9 -18 10 -26 2 -31 -6 -4 -13 -21 -15 -37 -2 -22 -9 -30 -23 -31 -11 -1 -24 -3 -30 -4 -5 -2 -18 0 -27 4 -10 5 -37 6 -60 5 l-43 -4 4 38 3 37 -125 0 c-91 0 -127 -3 -130 -12 -4 -10 -6 -10 -6 0 -1 8 -17 12 -46 12 l-45 0 0 -43 c0 -24 5 -48 12 -55 9 -9 9 -15 0 -24 -7 -7 -12 -44 -12 -95 l0 -83 148 0 c102 0 152 -4 160 -12 7 -7 12 -39 12 -73 0 -34 -5 -66 -12 -73 -8 -8 -58 -12 -160 -12 l-148 0 0 -74 c0 -41 4 -78 10 -81 16 -10 32 -45 20 -45 -5 0 -10 7 -10 15 0 8 -4 15 -10 15 -6 0 -10 -33 -10 -80 l0 -79 153 1 c194 1 197 1 197 44 0 44 21 54 109 54 l71 0 0 -130 c0 -116 -2 -130 -19 -139 -11 -6 -139 -11 -310 -13 -160 -1 -285 -5 -278 -10 7 -4 -3 -8 -25 -8 -21 0 -38 5 -38 10 0 7 -25 10 -67 8 -85 -4 -103 9 -103 70 0 24 -4 41 -9 37 -5 -3 -12 -1 -16 4 -3 5 3 15 12 21 13 8 14 13 6 16 -19 8 -16 37 2 30 10 -3 15 1 15 12 0 10 3 13 8 6 4 -6 22 -11 40 -11 l33 0 -1 397 -1 397 -29 1 c-47 1 -67 17 -65 52 2 32 -4 37 -23 18 -9 -9 -12 -9 -12 0 0 7 -5 12 -10 12 -6 0 -10 -17 -8 -37 2 -39 35 -83 61 -83 8 0 17 -7 21 -15 5 -13 7 -248 6 -577 0 -98 -2 -108 -18 -108 -25 0 -64 -43 -57 -62 4 -9 2 -19 -4 -23 -16 -9 -14 -105 2 -105 8 0 7 -4 -3 -11 -11 -8 -12 -12 -2 -16 6 -2 12 -15 12 -28 0 -15 9 -29 22 -36 29 -16 423 -23 450 -8 15 8 19 8 13 0 -10 -17 338 -14 388 4 48 16 47 16 57 58 5 23 4 40 -4 48 -8 9 -8 10 2 5 15 -9 17 55 1 71 -8 8 -8 13 0 17 17 11 13 104 -6 137 -21 35 -59 49 -135 49 -82 0 -123 -19 -138 -64 l-12 -36 -61 0 c-34 -1 -87 -2 -117 -3 l-55 -2 3 105 c2 58 5 106 7 108 2 2 56 3 120 3 136 -1 167 10 185 65 17 52 8 164 -16 181 -10 7 -14 13 -8 13 5 0 2 5 -6 10 -8 5 -22 10 -30 10 -13 0 -13 -1 0 -10 20 -12 6 -23 -19 -15 -11 3 -18 12 -15 18 3 8 -4 13 -18 13 -13 0 -63 1 -111 2 l-88 2 3 92 3 91 115 -1 c85 -1 116 -4 119 -14 2 -7 16 -23 30 -36 24 -20 34 -22 121 -20 91 3 95 4 98 27 2 13 12 26 23 28 13 4 19 14 19 35 0 24 -3 29 -17 24 -16 -6 -16 -6 0 12 19 21 23 57 7 67 -8 5 -7 11 1 21 9 11 8 14 -2 14 -12 0 -12 2 0 9 9 6 11 18 6 42 -7 34 -34 92 -35 75 0 -4 -11 -1 -25 8 -23 15 -27 15 -41 1 -20 -19 -28 -19 -20 0 4 12 -6 15 -63 15 -46 0 -71 -4 -74 -12 -4 -10 -6 -10 -6 -1 -1 9 -48 12 -181 12 -160 1 -180 -1 -189 -16 -9 -16 -10 -16 -11 -1 0 14 -12 16 -85 16 -60 -1 -86 -5 -89 -15z m324 -23 c0 -5 -7 -10 -15 -10 -8 0 -15 5 -15 10 0 6 7 10 15 10 8 0 15 -4 15 -10z m-330 -244 c0 -2 -7 -7 -16 -10 -8 -3 -12 -2 -9 4 6 10 25 14 25 6z m560 -716 c0 -5 -2 -10 -4 -10 -3 0 -8 5 -11 10 -3 6 -1 10 4 10 6 0 11 -4 11 -10z m137 -262 c-3 -8 -6 -5 -6 6 -1 11 2 17 5 13 3 -3 4 -12 1 -19z"
       id="path350"
       style="fill-opacity:1;fill:url(#linearGradient33889)" />
    <path
       d="M1575 1350 c-8 -12 2 -30 17 -30 6 0 8 3 5 7 -4 3 -2 12 4 20 9 10 8 13 -4 13 -9 0 -19 -4 -22 -10z"
       id="path352"
       style="fill-opacity:1.0;fill:url(#linearGradient34077)" />
    <path
       d="M3385 1334 c-23 -25 -25 -33 -22 -124 2 -111 14 -135 73 -146 19 -3 34 -12 34 -19 0 -8 6 -20 13 -27 6 -8 23 -36 37 -63 21 -43 30 -50 58 -53 18 -2 32 1 32 7 0 6 -5 11 -11 11 -5 0 -7 5 -4 10 3 6 1 10 -4 10 -6 0 -11 7 -11 15 0 9 -7 18 -15 21 -8 4 -15 12 -15 20 0 8 -5 14 -11 14 -5 0 -7 4 -4 10 3 5 -4 30 -15 55 -18 40 -24 45 -54 45 -41 0 -46 10 -46 100 0 58 3 71 19 80 27 14 274 13 306 -2 23 -10 25 -16 25 -84 0 -60 -4 -77 -19 -91 -22 -21 -13 -51 10 -38 11 6 11 5 2 -5 -9 -10 -8 -20 5 -46 8 -19 20 -34 24 -34 5 0 7 -4 4 -8 -2 -4 -1 -14 4 -22 7 -11 11 -11 24 -1 18 15 22 1 5 -16 -8 -8 -5 -23 9 -54 18 -38 22 -41 28 -24 4 11 12 23 18 27 6 4 6 11 0 20 -6 7 -24 46 -40 86 -17 41 -34 70 -40 68 -7 -3 -11 5 -10 18 0 14 6 22 14 19 8 -4 12 6 12 32 0 33 -2 36 -16 24 -14 -12 -16 -11 -12 6 2 11 10 19 16 18 8 -2 12 16 12 57 0 53 -3 64 -26 85 -26 25 -30 25 -206 25 l-179 0 -24 -26z"
       id="path354"
       style="fill-opacity:1;fill:url(#linearGradient33897)" />
    <path
       d="M3999 1341 c-22 -18 -24 -28 -27 -125 -3 -90 -1 -107 12 -112 19 -7 21 -34 3 -34 -15 0 -40 -47 -32 -60 3 -4 -2 -11 -11 -14 -10 -4 -14 -14 -11 -26 3 -13 -1 -24 -13 -30 -14 -8 -27 -37 -34 -82 -1 -3 -4 -10 -8 -14 -14 -13 -8 -24 13 -24 11 0 17 5 14 10 -3 6 -2 10 4 10 11 0 61 86 61 106 0 8 4 14 9 14 5 0 14 15 21 33 8 17 20 40 28 49 8 10 12 24 9 33 -4 8 -1 14 5 12 7 -1 14 6 16 16 2 10 -2 17 -12 17 -16 0 -21 20 -17 71 1 14 -3 38 -9 53 -9 24 -7 31 11 47 18 16 40 18 172 18 96 1 155 -3 164 -10 17 -15 18 -152 0 -167 -6 -6 -27 -12 -46 -14 -32 -3 -37 -9 -73 -78 -21 -41 -38 -81 -38 -87 0 -7 -4 -13 -9 -13 -5 0 -15 -16 -22 -35 -7 -19 -17 -35 -21 -35 -4 0 -8 -9 -8 -19 0 -11 -4 -22 -8 -25 -18 -11 -84 -150 -73 -154 18 -6 13 -30 -6 -28 -42 6 -63 -56 -63 -185 0 -68 4 -99 13 -103 10 -5 10 -7 0 -12 -23 -10 -14 -24 16 -24 17 0 45 -9 63 -20 19 -11 39 -16 46 -11 22 13 -4 59 -43 78 -38 18 -38 19 -36 133 0 47 10 74 66 185 36 71 70 134 75 139 6 6 10 17 10 25 0 8 6 22 14 30 8 9 33 50 55 91 22 41 46 78 53 81 92 40 95 44 105 138 5 44 3 52 -8 46 -12 -7 -12 -6 -1 7 18 22 4 75 -26 98 -22 18 -41 20 -202 20 -160 0 -180 -2 -201 -19z m431 -171 c0 -5 -4 -10 -10 -10 -5 0 -10 5 -10 10 0 6 5 10 10 10 6 0 10 -4 10 -10z m-177 -205 c-3 -9 -8 -14 -10 -11 -3 3 -2 9 2 15 9 16 15 13 8 -4z m-296 -17 c-3 -8 -6 -5 -6 6 -1 11 2 17 5 13 3 -3 4 -12 1 -19z"
       id="path356"
       style="fill-opacity:1;fill:url(#linearGradient33895)" />
    <path
       d="M7960 1335 c0 -24 -8 -29 -40 -26 -9 1 -3 -9 14 -23 16 -14 24 -26 18 -26 -6 0 -14 5 -17 10 -3 6 -11 10 -16 10 -6 0 -3 -7 5 -16 9 -8 14 -19 11 -24 -3 -5 -1 -11 5 -15 12 -7 30 34 23 52 -9 23 40 36 129 35 88 -2 110 7 88 32 -15 19 -80 19 -73 0 3 -8 0 -14 -6 -14 -6 0 -11 7 -11 15 0 19 -56 21 -63 3 -4 -10 -6 -10 -6 -1 -1 18 -31 4 -32 -16 0 -11 -3 -9 -9 7 -12 29 -20 28 -20 -3z"
       id="path358"
       style="fill-opacity:1.0;fill:url(#linearGradient33608)" />
    <path
       d="M8190 1351 c0 -15 36 -27 97 -35 13 -1 26 -6 30 -9 11 -12 35 -8 27 5 -5 8 -2 9 10 5 14 -6 17 -3 12 9 -3 8 -6 20 -6 25 0 13 -54 11 -68 -3 -8 -8 -12 -8 -12 -1 0 6 -20 11 -45 11 -25 1 -45 -3 -45 -7z"
       id="path360"
       style="fill-opacity:1.0;fill:url(#linearGradient33442)" />
    <path
       d="M8544 1346 c-16 -12 -16 -16 -5 -30 12 -14 12 -16 -2 -10 -12 4 -14 1 -10 -15 3 -11 10 -18 17 -15 6 3 0 -4 -13 -16 -20 -17 -22 -23 -11 -30 14 -9 40 27 40 56 0 8 7 14 15 14 18 0 19 19 1 42 -11 15 -15 16 -32 4z"
       id="path362"
       style="fill-opacity:1.0;fill:url(#linearGradient33658)" />
    <path
       d="M8596 1351 c-10 -16 6 -41 26 -41 16 0 18 3 9 13 -6 8 -8 17 -4 20 12 13 23 7 23 -13 0 -13 7 -20 20 -20 11 0 20 5 20 10 0 6 7 10 15 10 8 0 15 -4 15 -10 0 -6 41 -10 103 -10 119 0 134 -7 138 -65 5 -96 -9 -125 -60 -125 -21 0 -43 -15 -90 -65 -33 -36 -61 -70 -61 -75 0 -6 -4 -10 -8 -10 -5 0 -30 -25 -56 -55 -49 -58 -55 -84 -23 -117 6 -7 13 -20 15 -29 4 -28 123 -294 133 -297 5 -2 9 -12 9 -23 0 -11 4 -27 10 -37 5 -9 16 -34 24 -54 15 -37 16 -38 65 -38 l51 0 0 -84 c0 -47 -4 -87 -9 -90 -5 -4 -52 -6 -105 -7 -53 0 -94 -4 -92 -8 3 -4 -4 -7 -15 -7 -10 0 -19 3 -19 7 0 3 -21 6 -47 7 -35 1 -43 -2 -28 -8 l20 -9 -20 0 c-11 -1 -35 8 -52 19 -32 19 -33 21 -33 90 0 59 3 71 20 80 11 6 18 15 15 21 -4 5 3 9 15 9 12 0 18 -5 15 -10 -3 -6 1 -10 9 -10 12 0 13 5 4 31 -6 17 -17 33 -25 36 -8 3 -12 11 -9 19 3 7 -2 18 -10 24 -8 7 -14 21 -14 31 0 10 -15 51 -34 91 -19 40 -42 91 -51 113 -9 22 -19 35 -22 28 -2 -6 -28 -36 -56 -65 -29 -30 -73 -78 -99 -107 l-48 -53 0 -75 0 -75 35 5 c28 4 36 1 42 -17 9 -28 4 -149 -7 -160 -5 -5 -65 -9 -134 -9 -95 0 -129 -4 -138 -14 -8 -11 -13 -11 -19 -2 -10 17 -71 20 -65 3 5 -13 -30 -14 -52 0 -8 4 -12 1 -12 -10 0 -12 6 -15 25 -12 14 3 30 -1 36 -8 15 -18 335 -20 374 -2 35 16 55 67 55 138 0 69 -24 134 -46 126 -8 -3 -13 -2 -10 3 3 5 -3 11 -14 14 -12 3 -20 14 -20 25 0 11 -6 23 -12 26 -10 5 -9 8 2 12 8 4 47 41 86 82 l70 75 22 -51 c12 -28 22 -55 22 -61 0 -6 9 -15 20 -21 11 -6 19 -20 19 -33 -1 -12 1 -29 5 -37 4 -10 -3 -25 -19 -40 -23 -21 -25 -31 -25 -106 0 -95 5 -115 27 -107 11 4 14 2 9 -5 -4 -7 -2 -12 6 -12 10 0 10 -2 -1 -9 -28 -18 25 -30 132 -29 72 0 107 4 107 12 0 7 3 7 8 -1 6 -9 34 -12 91 -10 77 2 84 4 107 30 29 33 33 80 7 70 -16 -6 -16 -5 0 17 36 52 7 165 -43 165 -14 0 -32 5 -41 10 -17 10 -75 119 -108 203 -11 26 -37 85 -58 132 -64 137 -64 137 -47 150 8 7 14 23 14 36 0 16 4 22 15 18 14 -6 104 80 105 99 0 18 57 56 82 57 15 0 39 10 53 23 23 20 27 32 32 103 7 100 -11 148 -59 158 -48 10 -356 7 -362 -3z m-224 -1223 c-7 -7 -12 -8 -12 -2 0 14 12 26 19 19 2 -3 -1 -11 -7 -17z"
       id="path364"
       style="fill-opacity:1.0;fill:url(#linearGradient33444)" />
    <path
       d="M1536 1313 c-4 -18 -15 -38 -24 -44 -13 -8 -14 -11 -4 -16 10 -4 9 -10 -5 -27 -18 -20 -45 -85 -48 -116 -1 -8 -6 -24 -13 -36 -9 -17 -23 -61 -56 -179 -3 -10 -5 -16 -32 -84 -8 -18 -11 -37 -8 -42 3 -5 1 -9 -4 -9 -5 0 -12 -12 -15 -27 -3 -16 -16 -59 -30 -98 -14 -38 -37 -109 -53 -157 -22 -70 -31 -88 -47 -88 -10 0 -32 -14 -49 -30 -30 -30 -30 -31 -26 -125 5 -140 3 -139 217 -143 138 -3 175 0 199 12 40 21 55 69 50 163 -3 71 -5 77 -36 103 -22 18 -31 32 -26 43 4 12 1 17 -10 17 -20 0 -21 14 -2 29 11 9 15 9 19 -1 4 -10 9 -8 17 4 6 10 22 18 35 18 13 0 27 5 30 11 4 6 14 7 24 3 27 -12 171 -14 171 -2 0 7 5 6 14 -1 8 -6 17 -32 21 -57 5 -39 3 -49 -19 -75 -23 -27 -26 -39 -26 -114 0 -148 11 -155 253 -155 223 0 237 10 237 160 0 68 -3 83 -23 105 -12 15 -38 30 -57 34 -30 6 -36 12 -44 44 -7 26 -15 37 -28 37 -20 0 -24 20 -7 37 7 7 8 19 4 30 -5 10 -10 29 -12 43 -2 14 -8 29 -14 35 -5 5 -9 21 -9 36 0 15 -5 31 -10 34 -6 4 -8 10 -5 15 3 5 -2 15 -11 24 -8 9 -13 20 -9 25 3 6 -2 27 -11 48 -9 21 -19 47 -21 58 -2 11 -8 21 -13 23 -5 2 -6 10 -4 17 6 15 -32 141 -47 161 -5 6 -5 15 -1 19 4 5 -1 5 -10 2 -10 -4 -18 -2 -18 3 0 15 -17 12 -24 -5 -5 -14 26 -122 54 -190 7 -16 14 -37 15 -45 4 -35 17 -80 22 -80 3 0 12 8 19 17 12 17 13 16 14 -4 0 -12 -6 -23 -12 -26 -10 -4 -10 -7 0 -18 6 -7 12 -33 12 -57 0 -24 4 -41 9 -38 5 4 7 -4 3 -16 -3 -14 -2 -19 6 -14 8 5 12 -1 12 -15 0 -18 2 -19 15 -9 9 7 18 10 21 7 3 -3 -3 -10 -14 -16 -14 -8 -18 -17 -14 -38 3 -15 9 -31 14 -34 5 -3 11 -22 13 -42 1 -20 10 -50 19 -68 9 -18 16 -38 16 -46 0 -8 12 -13 33 -13 54 0 58 -8 55 -96 l-3 -79 -174 -3 c-96 -1 -178 1 -182 5 -4 5 -9 41 -11 81 -3 78 4 92 50 92 12 0 22 6 22 13 0 12 -22 88 -37 127 -4 8 -7 17 -7 20 -1 3 -6 13 -12 24 -9 15 -15 16 -33 7 -14 -8 -21 -8 -21 -1 0 5 -7 10 -15 10 -8 0 -15 -6 -15 -12 0 -10 -2 -10 -8 -1 -10 16 -164 16 -174 0 -6 -9 -8 -9 -8 1 0 8 -16 12 -46 12 -44 0 -46 -1 -42 -25 3 -14 0 -29 -6 -33 -11 -7 -56 -113 -56 -133 0 -5 13 -9 28 -9 15 0 33 -5 40 -12 17 -17 16 -142 -2 -157 -9 -8 -64 -11 -172 -9 l-159 3 0 85 0 85 37 3 c31 3 38 8 47 34 6 17 11 42 11 54 0 13 4 24 8 24 8 0 43 109 48 149 1 13 6 27 11 30 5 3 16 30 25 60 16 51 16 55 0 67 -16 12 -15 13 5 14 16 0 24 8 29 28 5 24 11 42 45 130 6 17 5 22 -6 22 -8 0 -15 5 -15 10 0 6 8 10 18 10 13 0 24 20 44 82 17 53 23 85 17 89 -7 4 -4 9 5 12 9 4 16 17 16 31 0 13 5 26 10 28 6 2 11 14 12 28 1 14 9 33 17 43 14 17 14 20 0 30 -9 7 -18 19 -21 27 -3 9 -8 2 -12 -17z m-41 -222 c3 -5 1 -12 -5 -16 -5 -3 -10 1 -10 9 0 18 6 21 15 7z m-178 -507 c-3 -3 -12 -4 -19 -1 -8 3 -5 6 6 6 11 1 17 -2 13 -5z"
       id="path366"
       style="fill-opacity:1;fill:url(#linearGradient33891)" />
    <path
       d="M1640 1330 c8 -5 22 -9 30 -9 10 0 8 3 -5 9 -27 12 -43 12 -25 0z"
       id="path368"
       style="fill-opacity:1.0;fill:url(#linearGradient34083)" />
    <path
       d="M8390 1291 c0 -5 7 -14 15 -21 16 -14 18 -10 9 14 -6 17 -24 22 -24 7z"
       id="path370"
       style="fill-opacity:1.0;fill:url(#linearGradient33660)" />
    <path
       d="M1606 1283 c-11 -11 -6 -23 9 -23 8 0 15 4 15 9 0 13 -16 22 -24 14z"
       id="path372"
       style="fill-opacity:1.0;fill:url(#linearGradient34095)" />
    <path
       d="M1678 1283 c-10 -2 -18 -14 -18 -26 0 -18 -2 -19 -10 -7 -8 13 -10 13 -10 -1 0 -17 -32 -59 -44 -59 -4 0 -4 9 -1 20 4 11 2 20 -4 20 -6 0 -11 -9 -11 -20 0 -27 3 -36 13 -32 4 1 7 -3 7 -9 0 -6 7 -9 15 -5 8 3 15 1 15 -4 0 -6 5 -10 11 -10 6 0 8 7 5 16 -3 8 -2 12 4 9 14 -9 12 -33 -2 -38 -7 -2 -23 2 -35 10 -17 11 -27 12 -42 3 -22 -11 -28 -30 -11 -30 6 0 10 -7 10 -16 0 -8 -5 -12 -11 -9 -6 4 -10 1 -8 -6 1 -8 1 -23 -1 -34 l-1 -20 -9 20 c-8 18 -9 17 -9 -7 -1 -15 -5 -29 -10 -32 -5 -3 -12 -23 -16 -43 -4 -21 -15 -58 -25 -83 -10 -25 -21 -62 -24 -83 -4 -33 -2 -39 20 -47 28 -11 32 -22 7 -18 -10 2 -18 -2 -18 -9 0 -15 -15 -30 -15 -15 0 7 -6 12 -13 12 -8 0 -30 -51 -56 -132 -24 -73 -48 -141 -52 -150 -5 -10 -9 -22 -9 -27 0 -6 -9 -35 -21 -66 -19 -52 -22 -55 -55 -55 l-34 0 0 -60 0 -60 145 0 145 0 0 60 0 60 -45 0 c-53 0 -54 6 -24 82 11 29 18 62 14 75 -4 16 -1 25 10 29 8 4 15 14 15 23 0 9 7 26 15 37 12 18 22 21 65 17 40 -3 50 -1 50 12 0 8 -8 15 -17 16 -15 0 -15 2 2 9 35 15 47 12 36 -9 -9 -16 -6 -19 19 -23 16 -2 36 0 44 4 10 5 16 5 16 0 0 -11 89 -11 105 0 6 4 17 3 25 -2 15 -9 42 -2 35 10 -5 9 25 23 33 16 2 -3 7 -25 9 -50 3 -25 11 -51 19 -57 7 -6 10 -17 8 -24 -3 -7 6 -46 20 -85 14 -39 26 -73 26 -76 0 -2 -20 -4 -45 -4 l-45 0 0 -60 0 -60 155 0 155 0 0 59 0 60 -42 3 c-39 3 -43 6 -51 38 -5 19 -13 39 -18 45 -5 5 -9 22 -9 37 0 15 -4 28 -10 28 -5 0 -9 3 -8 8 2 9 -13 74 -20 87 -4 6 -8 18 -9 28 -2 10 -10 31 -18 47 -8 16 -15 38 -15 49 0 11 -7 26 -15 34 -8 8 -12 17 -9 20 8 8 -18 97 -26 92 -5 -3 -8 8 -8 25 1 16 -6 38 -15 48 -17 19 -17 19 -17 61 0 16 -6 36 -13 43 -7 7 -13 24 -14 38 -1 13 -6 34 -12 45 -9 20 -35 106 -47 158 -7 32 -24 36 -24 6 0 -11 -4 -18 -10 -14 -5 3 -7 12 -3 20 3 8 0 15 -6 15 -6 0 -10 5 -8 12 2 12 -63 20 -95 11z m66 -19 c9 -3 16 -10 16 -15 0 -4 -6 -6 -14 -3 -7 3 -16 -1 -19 -9 -4 -11 0 -13 14 -10 10 3 19 0 19 -6 0 -6 -9 -11 -20 -11 -14 0 -20 -7 -20 -21 0 -12 4 -18 11 -13 9 5 10 -3 5 -29 -4 -23 -2 -40 6 -49 7 -7 13 -29 14 -48 0 -24 5 -36 16 -38 20 -4 33 29 16 40 -10 6 -8 8 4 8 27 0 19 -46 -9 -59 -23 -10 -23 -12 -8 -40 8 -17 15 -37 15 -46 0 -8 4 -15 10 -15 5 0 7 -7 4 -15 -4 -8 1 -17 9 -21 11 -4 14 -15 11 -40 -2 -20 0 -34 6 -34 6 0 8 -4 5 -10 -3 -5 -1 -18 4 -28 6 -11 13 -33 16 -51 l5 -31 -164 0 -163 0 3 32 c2 17 8 34 12 37 4 3 25 59 46 125 38 114 39 119 21 132 -10 8 -14 14 -9 14 6 0 15 -5 22 -12 11 -11 13 -8 12 27 0 3 6 18 15 35 19 36 19 44 0 36 -8 -3 -15 -2 -15 3 0 5 9 11 20 14 12 3 20 14 20 26 0 12 6 21 15 21 22 0 19 41 -3 47 -14 3 -17 12 -14 34 4 30 27 38 66 23z m56 -85 c0 -20 -15 -26 -25 -9 -3 6 -1 10 6 10 8 0 8 4 -1 15 -11 13 -10 14 4 9 9 -3 16 -15 16 -25z m-40 -49 c0 -5 -5 -10 -11 -10 -5 0 -7 5 -4 10 3 6 8 10 11 10 2 0 4 -4 4 -10z m-136 -70 c10 -13 9 -13 -6 -1 -10 7 -18 21 -17 30 0 13 1 14 6 1 3 -8 11 -22 17 -30z m193 18 c-3 -8 -6 -5 -6 6 -1 11 2 17 5 13 3 -3 4 -12 1 -19z m-237 -118 c0 -5 -4 -10 -10 -10 -5 0 -10 5 -10 10 0 6 5 10 10 10 6 0 10 -4 10 -10z m310 -25 c-12 -15 -30 -12 -30 6 0 5 10 9 21 9 18 0 19 -2 9 -15z m57 -312 c-3 -10 -5 -4 -5 12 0 17 2 24 5 18 2 -7 2 -21 0 -30z m-97 8 c0 -6 -4 -13 -10 -16 -5 -3 -10 1 -10 9 0 9 5 16 10 16 6 0 10 -4 10 -9z m-319 -19 c22 5 20 -19 -2 -25 -22 -6 -49 12 -49 33 0 8 6 8 20 0 10 -6 24 -9 31 -8z m410 -69 c-9 -16 -10 -14 -11 12 0 21 3 26 11 18 8 -8 8 -16 0 -30z m39 13 c0 -3 -4 -8 -10 -11 -5 -3 -10 -1 -10 4 0 6 5 11 10 11 6 0 10 -2 10 -4z m-520 -26 c0 -5 -5 -10 -11 -10 -5 0 -7 5 -4 10 3 6 8 10 11 10 2 0 4 -4 4 -10z m535 -39 c-6 -5 -25 10 -25 20 0 5 6 4 14 -3 8 -7 12 -15 11 -17z"
       id="path374"
       style="fill-opacity:1.0;fill:url(#linearGradient33883)" />
    <path
       d="M1675 1008 c-10 -29 -18 -57 -20 -63 -1 -5 -7 -23 -14 -38 -6 -16 -9 -32 -6 -37 3 -5 2 -10 -2 -12 -8 -3 -53 -128 -53 -147 0 -7 38 -11 120 -11 66 0 120 4 120 9 0 15 -29 21 -55 11 -19 -7 -23 -6 -18 5 3 8 9 13 13 10 5 -3 11 -1 14 4 4 5 2 12 -4 16 -12 8 -13 25 -1 25 5 0 11 -10 14 -22 4 -12 9 -19 13 -15 4 4 2 24 -4 44 -6 21 -18 64 -27 96 -9 31 -20 57 -26 57 -6 0 -7 5 -4 10 8 12 -23 110 -35 110 -4 0 -15 -24 -25 -52z m53 -128 c-15 -9 -15 -15 -2 -62 7 -29 12 -53 11 -54 -10 -10 -66 -5 -78 6 -14 12 -13 16 3 32 10 10 16 28 15 40 -5 29 12 47 43 47 21 0 22 -1 8 -9z"
       id="path376"
       style="fill-opacity:1.0;fill:url(#linearGradient34123)" />
    <path
       d="M2965 1285 c-5 -2 -84 -6 -175 -7 -164 -4 -165 -4 -164 -26 0 -15 -3 -19 -9 -13 -10 10 -42 -15 -119 -93 l-28 -28 0 -140 0 -141 56 -63 56 -64 191 0 c177 0 193 -1 221 -21 l31 -21 -2 -146 -2 -147 -40 -37 -40 -38 -119 0 -118 0 -37 38 c-24 25 -37 47 -37 65 l0 27 -80 0 -80 0 0 -44 c0 -41 4 -47 85 -125 l85 -81 183 0 182 1 88 84 87 84 0 174 0 173 -49 55 c-49 55 -95 74 -113 47 -6 -10 -8 -9 -8 3 0 14 -20 16 -164 16 -226 -1 -220 -5 -217 169 2 53 -2 74 -13 84 -20 16 -21 34 -1 26 8 -3 15 -2 15 3 0 4 11 14 25 21 14 7 25 20 25 29 0 14 17 16 136 13 l137 -3 42 -44 c42 -43 43 -43 114 -43 69 0 71 1 71 24 0 17 -20 45 -61 87 -33 34 -67 70 -74 80 -12 18 -59 30 -80 22z m-188 -67 c-3 -8 -6 -5 -6 6 -1 11 2 17 5 13 3 -3 4 -12 1 -19z m193 2 c0 -5 -8 -10 -17 -10 -15 0 -16 2 -3 10 19 12 20 12 20 0z m-310 -64 c0 -3 -4 -8 -10 -11 -5 -3 -10 -1 -10 4 0 6 5 11 10 11 6 0 10 -2 10 -4z m-110 -230 c0 -3 -4 -8 -10 -11 -5 -3 -10 -1 -10 4 0 6 5 11 10 11 6 0 10 -2 10 -4z m221 -140 c5 3 9 -2 9 -10 0 -23 -17 -28 -35 -10 -13 14 -14 19 -3 25 7 5 14 4 16 -1 2 -6 8 -8 13 -4z m179 -16 c0 -5 -2 -10 -4 -10 -3 0 -8 5 -11 10 -3 6 -1 10 4 10 6 0 11 -4 11 -10z m-49 -9 c-7 -5 -10 -14 -7 -20 11 -17 -17 -13 -40 5 -14 11 -15 14 -3 11 9 -3 22 -1 30 4 8 5 19 9 24 9 6 0 4 -4 -4 -9z m-201 -21 c0 -5 -5 -10 -11 -10 -5 0 -7 5 -4 10 3 6 8 10 11 10 2 0 4 -4 4 -10z"
       id="path378"
       style="fill-opacity:1;fill:url(#linearGradient33881)" />
    <path
       d="M6207 1281 c-10 -4 -54 -42 -98 -86 l-79 -79 0 -386 0 -385 66 -65 c36 -36 70 -73 75 -82 9 -16 30 -18 210 -18 l201 0 49 41 c28 23 49 49 49 61 0 11 4 16 11 12 6 -3 24 7 40 22 l30 28 -2 293 c-1 263 -2 292 -17 296 -15 4 -15 5 1 6 20 1 25 51 5 51 -9 0 -9 3 -2 8 5 4 10 32 10 62 l-1 55 -83 86 -83 87 -182 0 c-100 0 -190 -3 -200 -7z m351 -159 l42 -39 0 -118 c0 -100 2 -116 15 -111 8 3 15 1 15 -4 0 -6 -7 -10 -15 -10 -13 0 -15 -32 -15 -229 l0 -230 -43 -42 -42 -42 -125 2 c-68 1 -130 6 -136 9 -7 4 -26 25 -43 46 l-31 39 1 341 1 341 44 43 44 42 124 0 123 0 41 -38z m82 -33 c0 -5 -4 -9 -10 -9 -5 0 -10 7 -10 16 0 8 5 12 10 9 6 -3 10 -10 10 -16z m0 -370 c0 -6 -4 -7 -10 -4 -5 3 -10 11 -10 16 0 6 5 7 10 4 6 -3 10 -11 10 -16z m100 -24 c-7 -8 -16 -15 -21 -15 -5 0 -6 7 -3 15 4 8 13 15 21 15 13 0 13 -3 3 -15z m0 -65 c0 -5 -5 -10 -11 -10 -5 0 -7 5 -4 10 3 6 8 10 11 10 2 0 4 -4 4 -10z m-130 -330 c0 -5 -2 -10 -4 -10 -3 0 -8 5 -11 10 -3 6 -1 10 4 10 6 0 11 -4 11 -10z"
       id="path380"
       style="fill-opacity:1.0;fill:url(#linearGradient33390)" />
    <path
       d="M6252 1100 l-32 -26 0 -344 0 -344 27 -28 c26 -28 29 -28 143 -28 l116 0 32 33 32 33 0 286 c0 220 -3 288 -12 291 -10 4 -10 6 0 6 7 1 12 17 12 44 0 35 -6 49 -32 75 l-33 31 -110 -1 c-105 -1 -112 -2 -143 -28z m247 -45 c17 -17 17 -631 -1 -652 -7 -9 -39 -13 -101 -13 -137 0 -127 -27 -127 347 l0 314 29 12 c37 16 181 10 200 -8z"
       id="path382"
       style="fill-opacity:1.0;fill:url(#linearGradient33388)" />
    <path
       d="M7172 1262 c-16 -15 -26 -34 -24 -41 3 -8 0 -11 -6 -8 -15 10 -115 -91 -108 -109 3 -7 12 -14 20 -14 8 0 18 -5 22 -11 4 -7 0 -9 -14 -5 -15 5 -21 1 -26 -16 -10 -40 -7 -298 4 -298 7 0 7 -6 0 -19 -6 -12 -10 -96 -10 -203 l0 -184 81 -87 81 -87 180 0 181 0 88 87 89 87 0 73 0 73 -65 0 -65 0 -1 -32 c-1 -18 0 -45 1 -59 1 -19 -11 -37 -44 -67 l-46 -42 -123 0 -123 0 -41 42 -42 43 0 263 c-1 145 -3 268 -7 273 -3 5 -9 7 -14 4 -5 -3 -11 -1 -15 5 -3 5 3 10 15 10 20 0 21 5 19 70 l-2 70 44 40 c41 37 48 40 109 41 184 3 191 2 221 -27 16 -15 34 -24 43 -21 12 5 15 -1 14 -27 -1 -18 2 -38 6 -44 4 -7 2 -12 -3 -12 -6 0 -11 -9 -11 -20 0 -17 7 -20 53 -20 28 0 59 5 67 10 10 6 11 10 3 10 -8 0 -13 14 -13 35 0 19 5 35 11 35 8 0 8 5 -1 15 -10 12 -10 15 1 15 8 0 -3 17 -24 38 -21 20 -56 58 -78 84 -42 48 -94 72 -109 48 -6 -9 -9 -9 -15 0 -5 8 -12 7 -25 -5 -16 -15 -21 -15 -42 -2 -16 10 -54 15 -126 15 -98 1 -103 0 -130 -26z m375 -35 c3 -4 -9 -5 -27 -2 -18 2 -35 6 -38 9 -3 3 9 4 27 2 17 -2 34 -6 38 -9z m-237 -7 c0 -5 -5 -10 -11 -10 -5 0 -7 5 -4 10 3 6 8 10 11 10 2 0 4 -4 4 -10z m60 -20 c0 -5 -2 -10 -4 -10 -3 0 -8 5 -11 10 -3 6 -1 10 4 10 6 0 11 -4 11 -10z m-253 -182 c-3 -7 -5 -2 -5 12 0 14 2 19 5 13 2 -7 2 -19 0 -25z m-16 -68 c25 0 25 -26 0 -33 -11 -2 -25 3 -35 14 -20 24 -20 33 0 25 9 -3 24 -6 35 -6z m-1 -124 c0 -3 -4 -8 -10 -11 -5 -3 -10 -1 -10 4 0 6 5 11 10 11 6 0 10 -2 10 -4z m11 -40 c5 3 9 -2 9 -10 0 -20 -13 -27 -29 -16 -9 5 -11 15 -6 26 5 13 9 15 12 6 3 -6 9 -10 14 -6z m539 -496 c0 -5 -2 -10 -4 -10 -3 0 -8 5 -11 10 -3 6 -1 10 4 10 6 0 11 -4 11 -10z"
       id="path384"
       style="fill-opacity:1.0;fill:url(#linearGradient33440)" />
    <path
       d="M3450 1213 l0 -63 33 0 c30 0 34 -5 82 -96 28 -53 55 -102 62 -109 6 -6 25 -42 42 -79 18 -37 38 -69 46 -72 7 -3 11 -12 8 -21 -3 -8 -2 -18 4 -22 5 -3 19 -27 32 -53 15 -32 27 -45 37 -41 8 3 14 0 14 -6 0 -6 -4 -11 -8 -11 -5 0 -1 -22 7 -50 16 -51 28 -59 49 -38 15 15 54 18 70 6 13 -11 17 -29 5 -26 -15 4 -53 -27 -53 -43 0 -12 -6 -16 -20 -12 -11 3 -20 11 -20 19 0 7 -5 16 -11 19 -7 5 -9 -28 -7 -106 2 -93 0 -113 -12 -117 -8 -3 -20 -12 -27 -21 -11 -14 -12 -14 -13 2 0 26 -25 20 -39 -9 -9 -21 -9 -32 3 -55 8 -16 10 -27 5 -24 -5 4 -9 1 -9 -5 0 -6 8 -10 18 -8 11 3 16 12 15 28 l-2 25 11 -25 c17 -35 18 -36 29 -20 8 11 12 12 16 3 6 -16 24 -17 20 -2 -1 6 4 14 11 16 8 3 10 -1 6 -11 -4 -11 -1 -16 10 -16 12 0 15 6 10 25 -5 21 -3 24 10 19 11 -4 15 -13 11 -25 -6 -18 0 -19 80 -19 l87 0 -6 58 c-3 31 -5 58 -6 60 0 2 -17 2 -37 0 -25 -2 -37 -8 -35 -16 1 -8 -1 -11 -6 -8 -5 3 -7 19 -4 37 3 20 0 34 -9 40 -10 6 -11 11 -3 17 7 4 12 47 13 112 2 79 7 115 22 149 10 24 19 45 19 47 0 1 -16 0 -37 -3 -27 -5 -34 -3 -29 6 4 6 2 19 -5 27 -6 8 -9 17 -6 20 9 9 27 -5 27 -22 0 -8 5 -14 10 -14 6 0 8 12 5 28 -5 25 -5 25 4 5 10 -23 41 -32 41 -13 0 6 -4 10 -10 10 -5 0 -10 7 -10 17 0 15 1 15 19 -1 18 -16 20 -14 52 51 19 37 37 70 40 73 3 3 35 62 72 132 45 87 64 134 60 150 -4 19 -3 20 7 8 9 -11 13 -12 17 -2 2 7 22 12 44 12 l40 0 -3 62 -3 62 -142 1 -143 0 0 -63 c0 -34 3 -61 8 -61 4 1 17 1 29 0 21 -1 19 -9 -43 -126 -36 -69 -62 -125 -58 -125 4 0 -2 -10 -13 -22 -35 -39 -46 -67 -29 -74 16 -6 56 24 56 43 0 17 14 23 29 14 10 -7 10 -12 0 -29 -7 -11 -18 -18 -25 -15 -9 3 -11 -2 -7 -16 4 -17 2 -20 -11 -15 -9 3 -16 1 -16 -6 0 -6 -4 -8 -10 -5 -6 4 -10 -5 -10 -21 0 -23 -2 -25 -16 -13 -14 11 -18 11 -28 -2 -15 -21 -46 -20 -46 2 0 9 -9 34 -19 56 -11 21 -22 46 -25 56 -3 9 -17 22 -32 27 -17 7 -24 15 -20 25 3 8 2 15 -3 15 -4 0 -8 13 -9 29 0 16 -19 65 -41 110 -23 44 -41 83 -41 86 0 3 14 5 30 5 l30 0 0 60 c0 69 22 61 -172 64 l-118 1 0 -62z m253 -193 c-3 -11 -7 -20 -9 -20 -2 0 -4 9 -4 20 0 11 4 20 9 20 5 0 7 -9 4 -20z m397 -120 c0 -5 -5 -10 -11 -10 -5 0 -7 5 -4 10 3 6 8 10 11 10 2 0 4 -4 4 -10z m-311 -53 c4 7 11 6 19 -3 11 -12 10 -14 -4 -14 -11 0 -14 -5 -10 -16 7 -18 -19 -50 -29 -34 -3 5 -1 10 4 10 6 0 11 5 11 11 0 7 -11 9 -30 6 -17 -4 -30 -2 -30 3 0 9 14 14 33 11 4 0 7 7 7 17 0 25 14 38 19 16 2 -9 6 -12 10 -7z m38 -69 c-3 -8 -6 -5 -6 6 -1 11 2 17 5 13 3 -3 4 -12 1 -19z m7 -55 c4 -9 2 -20 -5 -23 -8 -6 -8 -9 0 -14 19 -12 12 -25 -10 -21 -25 5 -38 15 -21 15 7 0 12 7 12 15 0 9 -6 12 -17 8 -14 -5 -13 -3 3 14 24 26 30 27 38 6z m43 -39 c-3 -3 -12 -4 -19 -1 -8 3 -5 6 6 6 11 1 17 -2 13 -5z m-27 -98 c0 -3 -4 -8 -10 -11 -5 -3 -10 -1 -10 4 0 6 5 11 10 11 6 0 10 -2 10 -4z m92 -168 c-9 -9 -15 -9 -24 1 -11 10 -9 11 6 5 16 -6 18 -4 12 12 -6 15 -5 17 5 7 10 -10 10 -16 1 -25z m-92 -82 c0 -3 -4 -8 -10 -11 -5 -3 -10 -1 -10 4 0 6 5 11 10 11 6 0 10 -2 10 -4z m110 -10 c0 -3 -4 -8 -10 -11 -5 -3 -10 -1 -10 4 0 6 5 11 10 11 6 0 10 -2 10 -4z m-56 -31 c-4 -8 -11 -15 -18 -15 -7 0 -6 -3 2 -9 10 -6 10 -10 -3 -21 -13 -10 -15 -10 -15 5 0 10 7 27 17 37 20 22 24 23 17 3z m21 -25 c3 -5 1 -10 -4 -10 -6 0 -11 5 -11 10 0 6 2 10 4 10 3 0 8 -4 11 -10z m-87 -32 c1 -15 -3 -28 -9 -28 -6 0 -8 7 -5 16 4 10 0 21 -9 28 -15 10 -14 12 2 12 14 0 20 -8 21 -28z m132 -51 c0 -4 -7 -2 -15 7 -8 8 -15 21 -15 28 1 14 30 -20 30 -35z"
       id="path386"
       style="fill-opacity:1;fill:url(#linearGradient33899)" />
    <path
       d="M220 1260 c0 -5 5 -10 11 -10 6 0 7 -5 2 -12 -13 -21 -13 -72 0 -59 6 6 16 11 21 11 6 -1 1 -9 -12 -20 -13 -11 -30 -16 -39 -13 -11 5 -14 3 -8 -6 4 -7 19 -11 34 -9 l26 4 -2 -201 c-2 -110 -3 -304 -3 -432 l0 -232 -42 -3 -42 -3 -4 -57 -4 -58 45 0 c27 0 47 5 50 13 4 9 7 9 14 0 7 -9 89 -12 338 -10 l330 2 3 108 3 107 -61 0 c-58 0 -60 -1 -60 -26 0 -23 4 -26 25 -22 13 3 22 1 19 -3 -3 -5 -14 -9 -25 -9 -12 0 -19 -7 -19 -20 0 -15 -7 -20 -25 -20 -14 0 -25 -5 -25 -11 0 -8 -4 -8 -13 0 -8 6 -77 12 -178 13 l-164 3 -3 175 c-2 114 -6 176 -14 181 -8 5 -7 11 2 20 10 11 47 13 171 11 l159 -3 0 56 0 56 -137 -1 c-76 -1 -149 -1 -163 0 l-25 0 2 155 c0 85 -3 155 -8 155 -5 0 -4 12 1 26 9 22 8 25 -4 21 -10 -4 -13 -1 -10 7 3 7 -2 20 -10 29 -20 20 -20 33 0 41 21 8 34 -1 34 -22 0 -13 -2 -14 -9 -3 -5 7 -11 9 -14 4 -7 -12 42 -57 51 -48 4 3 0 11 -8 16 -11 8 -12 12 -3 16 9 3 10 10 3 24 -6 10 -7 19 -2 19 5 0 10 11 10 25 0 24 -3 26 -47 24 -25 -1 -54 -9 -64 -17 -16 -14 -19 -13 -32 4 -13 17 -16 17 -26 4 -8 -11 -12 -12 -16 -2 -6 14 -33 16 -33 2z m131 -53 c-13 -33 -28 -35 -26 -4 2 12 8 21 14 20 6 -2 11 5 12 15 0 9 3 12 5 6 3 -6 0 -23 -5 -37z m-41 3 c0 -5 -5 -10 -11 -10 -5 0 -7 5 -4 10 3 6 8 10 11 10 2 0 4 -4 4 -10z m77 -137 c-4 -3 -2 -12 4 -20 7 -8 8 -13 1 -13 -12 0 -23 26 -15 34 4 3 9 6 11 6 3 0 2 -3 -1 -7z m-42 -53 c-3 -5 -12 -10 -18 -10 -7 0 -6 4 3 10 19 12 23 12 15 0z m124 -282 c-13 -24 -25 -23 -25 1 0 12 7 19 17 18 14 -1 15 -5 8 -19z m101 1 c0 -5 -4 -9 -10 -9 -5 0 -10 7 -10 16 0 8 5 12 10 9 6 -3 10 -10 10 -16z m-255 -209 c3 -5 1 -10 -4 -10 -6 0 -11 5 -11 10 0 6 2 10 4 10 3 0 8 -4 11 -10z m40 -80 c3 -5 1 -10 -4 -10 -6 0 -11 5 -11 10 0 6 2 10 4 10 3 0 8 -4 11 -10z m250 -200 c-3 -5 -13 -10 -21 -10 -8 0 -17 -7 -20 -15 -4 -8 -10 -15 -15 -15 -14 0 13 39 31 44 27 7 31 6 25 -4z m265 0 c0 -5 -4 -10 -10 -10 -5 0 -10 5 -10 10 0 6 5 10 10 10 6 0 10 -4 10 -10z m-475 -10 c-3 -5 -11 -10 -16 -10 -6 0 -7 5 -4 10 3 6 11 10 16 10 6 0 7 -4 4 -10z m42 -35 c0 -8 -6 -16 -14 -19 -13 -5 -18 15 -6 27 11 11 20 8 20 -8z m63 5 c0 -5 -7 -7 -15 -4 -8 4 -15 8 -15 10 0 2 7 4 15 4 8 0 15 -4 15 -10z m362 -12 c-7 -7 -12 -8 -12 -2 0 14 12 26 19 19 2 -3 -1 -11 -7 -17z m-32 -2 c0 -3 -4 -8 -10 -11 -5 -3 -10 -1 -10 4 0 6 5 11 10 11 6 0 10 -2 10 -4z"
       id="path388"
       style="fill-opacity:1;fill:url(#linearGradient33885)" />
    <path
       d="M450 1250 c0 -11 5 -20 11 -20 5 0 7 5 4 10 -3 6 -1 10 4 10 17 0 13 -30 -4 -36 -17 -7 -21 -34 -4 -34 6 0 8 -8 4 -19 -5 -17 4 -18 167 -19 142 0 174 2 183 15 7 9 23 13 45 11 l35 -3 -37 -17 c-32 -14 -38 -22 -38 -47 l0 -31 60 0 60 0 0 100 0 100 -245 0 c-238 0 -245 -1 -245 -20z m260 -24 c0 -3 -4 -8 -10 -11 -5 -3 -10 -1 -10 4 0 6 5 11 10 11 6 0 10 -2 10 -4z m141 -19 c-10 -9 -11 -8 -5 6 3 10 9 15 12 12 3 -3 0 -11 -7 -18z m-334 -7 c-1 -11 -5 -20 -9 -20 -4 0 -8 9 -8 20 0 11 4 20 9 20 6 0 9 -9 8 -20z m263 16 c0 -3 -4 -8 -10 -11 -5 -3 -10 -1 -10 4 0 6 5 11 10 11 6 0 10 -2 10 -4z m117 -2 c-3 -3 -12 -4 -19 -1 -8 3 -5 6 6 6 11 1 17 -2 13 -5z m-157 -48 c0 -3 -4 -8 -10 -11 -5 -3 -10 -1 -10 4 0 6 5 11 10 11 6 0 10 -2 10 -4z m130 -40 c0 -3 -4 -8 -10 -11 -5 -3 -10 -1 -10 4 0 6 5 11 10 11 6 0 10 -2 10 -4z"
       id="path390"
       style="fill-opacity:1;fill:url(#linearGradient33887)" />
    <path
       d="M8000 1261 c0 -6 6 -14 13 -17 7 -2 13 -13 14 -24 1 -13 -3 -17 -13 -13 -10 4 -14 -3 -14 -26 0 -24 4 -31 19 -31 11 0 21 6 24 13 3 8 11 6 26 -9 21 -20 21 -25 22 -380 0 -197 0 -387 -1 -421 l0 -63 -45 0 c-43 0 -63 -15 -28 -22 15 -3 15 -4 -1 -20 -10 -10 -13 -18 -7 -18 5 0 13 5 16 10 3 6 11 10 17 10 7 0 -1 -13 -16 -29 -16 -16 -26 -35 -23 -43 4 -9 6 -7 6 5 1 21 21 23 21 2 0 -9 9 -14 28 -12 24 2 28 6 25 27 -1 16 0 18 3 7 4 -13 12 -17 25 -14 17 4 18 3 8 -9 -10 -12 -2 -14 50 -14 47 0 61 3 61 15 0 12 5 12 41 0 57 -20 59 -20 57 20 -1 22 -6 35 -15 35 -7 0 -13 5 -13 10 0 6 7 10 15 10 8 0 15 4 15 9 0 12 -41 21 -67 15 -12 -3 -30 -1 -40 6 -16 10 -16 11 0 6 15 -5 17 3 18 77 0 45 3 90 7 99 11 26 253 288 267 288 3 0 3 -5 0 -11 -8 -11 -4 -21 163 -391 l31 -68 -42 -1 c-23 -1 -45 -1 -49 0 -5 0 -8 -17 -8 -39 0 -30 3 -38 14 -34 19 7 15 -24 -5 -37 -9 -5 50 -9 154 -9 l167 0 0 59 0 60 -47 3 -46 3 -30 70 c-16 39 -50 115 -76 170 -26 55 -51 112 -55 128 -3 15 -15 36 -26 47 -11 11 -20 28 -20 38 0 9 -9 37 -20 61 -11 24 -20 47 -20 51 0 8 31 44 95 111 19 21 35 39 35 42 0 13 142 142 157 142 34 1 43 15 43 66 l0 49 -139 0 c-113 0 -140 -3 -144 -15 -4 -8 -2 -17 3 -20 6 -4 10 -1 10 4 0 6 5 11 10 11 15 0 12 -16 -5 -34 -18 -17 -20 -36 -4 -36 6 0 8 -7 5 -16 -5 -13 -1 -15 19 -12 30 6 32 -3 5 -27 -11 -10 -17 -21 -15 -26 3 -4 -4 -10 -15 -14 -11 -3 -20 -11 -20 -16 0 -5 -31 -39 -69 -76 -37 -38 -126 -133 -197 -212 l-129 -145 -3 218 c-1 138 -6 215 -12 211 -6 -3 -10 1 -10 9 0 9 4 16 9 16 5 0 11 12 13 28 3 24 7 27 46 30 34 3 42 7 42 23 0 22 -11 24 -28 7 -8 -8 -12 -8 -12 -1 0 10 -28 24 -55 27 -5 1 -16 5 -23 9 -21 14 -28 -24 -7 -39 17 -13 17 -14 2 -14 -10 0 -20 7 -23 15 -4 8 -12 15 -20 15 -8 0 -14 5 -14 10 0 6 7 10 16 10 9 0 14 6 11 13 -3 9 4 13 22 12 14 -1 34 5 44 14 20 17 35 8 18 -13 -9 -11 -6 -14 18 -18 19 -3 27 0 24 8 -2 6 3 14 11 17 40 16 8 25 -80 25 -65 0 -92 -4 -83 -10 10 -7 8 -8 -6 -3 -40 14 -145 18 -145 6z m93 -56 c-7 -21 -12 -19 -10 4 0 11 5 18 9 15 4 -3 5 -11 1 -19z m57 21 c0 -11 -19 -15 -25 -6 -3 5 1 10 9 10 9 0 16 -2 16 -4z m760 0 c0 -3 -4 -8 -10 -11 -5 -3 -10 -1 -10 4 0 6 5 11 10 11 6 0 10 -2 10 -4z m-194 -26 c0 -11 -4 -20 -8 -20 -4 0 -8 2 -8 4 0 2 -3 11 -6 20 -4 10 -1 16 8 16 7 0 14 -9 14 -20z m-656 -6 c0 -8 -5 -12 -10 -9 -6 4 -8 11 -5 16 9 14 15 11 15 -7z m200 -18 c0 -3 -4 -8 -10 -11 -5 -3 -10 -1 -10 4 0 6 5 11 10 11 6 0 10 -2 10 -4z m-68 -48 c-7 -7 -12 -8 -12 -2 0 14 12 26 19 19 2 -3 -1 -11 -7 -17z m539 -31 c-10 -9 -11 -8 -5 6 3 10 9 15 12 12 3 -3 0 -11 -7 -18z m-521 -77 c0 -5 -7 -7 -15 -4 -8 4 -15 8 -15 10 0 2 7 4 15 4 8 0 15 -4 15 -10z m417 -22 c-3 -8 -6 -5 -6 6 -1 11 2 17 5 13 3 -3 4 -12 1 -19z m28 3 c3 -5 1 -12 -5 -16 -5 -3 -10 1 -10 9 0 18 6 21 15 7z m-491 -53 c-7 -10 -34 -10 -34 0 0 4 5 13 12 20 9 9 14 9 19 0 4 -7 5 -16 3 -20z m26 -58 c0 -5 -7 -7 -15 -4 -8 4 -15 8 -15 10 0 2 7 4 15 4 8 0 15 -4 15 -10z m-2 -52 c17 -17 15 -28 -7 -28 -19 0 -35 23 -24 34 9 9 18 7 31 -6z m12 -89 c0 -5 -4 -9 -10 -9 -5 0 -10 9 -10 20 0 11 -4 20 -10 20 -5 0 -10 6 -10 13 1 13 40 -30 40 -44z m-76 -24 c-4 -8 -11 -15 -16 -15 -6 0 -5 6 2 15 7 8 14 15 16 15 2 0 1 -7 -2 -15z m55 -45 c-6 -5 -18 -6 -26 -3 -19 8 -16 11 13 11 17 0 22 -3 13 -8z m431 -30 c0 -5 -4 -10 -10 -10 -5 0 -10 5 -10 10 0 6 5 10 10 10 6 0 10 -4 10 -10z m-280 -42 c0 -13 -23 -5 -28 10 -2 7 2 10 12 6 9 -3 16 -11 16 -16z m290 -53 c0 -8 -4 -15 -10 -15 -5 0 -7 7 -4 15 4 8 8 15 10 15 2 0 4 -7 4 -15z m55 -113 c-6 -7 -34 29 -34 43 0 6 9 -1 20 -14 11 -13 17 -26 14 -29z m-537 -34 c-2 -6 -10 -14 -16 -16 -7 -2 -10 2 -6 12 7 18 28 22 22 4z m9 -54 c-3 -3 -12 -4 -19 -1 -8 3 -5 6 6 6 11 1 17 -2 13 -5z m23 -30 c0 5 7 3 15 -4 13 -11 13 -15 3 -21 -18 -12 -30 -11 -23 1 3 6 1 10 -4 10 -6 0 -11 8 -11 18 0 14 2 15 10 2 5 -8 10 -11 10 -6z m-20 -34 c0 -5 -7 -10 -15 -10 -8 0 -15 5 -15 10 0 6 7 10 15 10 8 0 15 -4 15 -10z m-20 -34 c0 -2 -8 -10 -17 -17 -16 -13 -17 -12 -4 4 13 16 21 21 21 13z m125 -16 c0 -7 -5 -15 -10 -17 -6 -2 -11 6 -11 17 0 11 5 19 11 17 5 -2 10 -10 10 -17z m550 10 c-3 -5 -11 -10 -17 -10 -6 0 -20 -8 -30 -17 -18 -16 -18 -16 -12 1 4 10 16 22 28 26 29 12 38 12 31 0z m-110 -40 c3 -6 -1 -7 -9 -4 -18 7 -21 14 -7 14 6 0 13 -4 16 -10z m-505 -20 c0 -5 -4 -10 -10 -10 -5 0 -10 5 -10 10 0 6 5 10 10 10 6 0 10 -4 10 -10z m635 0 c3 -5 1 -10 -4 -10 -6 0 -11 5 -11 10 0 6 2 10 4 10 3 0 8 -4 11 -10z"
       id="path392"
       style="fill-opacity:1.0;fill:url(#linearGradient33394)" />
    <path
       d="M8590 1263 c0 -20 22 -83 28 -83 4 0 9 20 10 45 1 39 -1 45 -18 45 -11 0 -20 -3 -20 -7z"
       id="path394"
       style="fill-opacity:1.0;fill:url(#linearGradient33656)" />
    <path
       d="M163 1202 c-1 -26 2 -32 14 -28 8 3 20 6 26 6 6 0 2 6 -8 14 -18 13 -18 13 1 24 20 12 20 12 -12 16 -17 2 -20 -3 -21 -32z"
       id="path396"
       style="fill-opacity:1.0;fill:url(#linearGradient34107)" />
    <path
       d="M8369 1213 c-15 -41 -5 -51 14 -14 20 40 20 41 7 41 -6 0 -15 -12 -21 -27z"
       id="path398"
       style="fill-opacity:1.0;fill:url(#linearGradient33662)" />
    <path
       d="M7940 1210 c-14 -4 -19 -8 -12 -9 17 -1 15 -21 -3 -21 -11 0 -14 -9 -10 -35 5 -42 13 -57 26 -50 5 4 9 1 9 -4 0 -6 3 -10 8 -9 4 1 16 -4 27 -11 19 -12 20 -22 17 -138 -2 -81 0 -123 7 -119 5 4 12 2 16 -4 3 -6 0 -13 -8 -16 -13 -4 -15 -37 -16 -190 l-1 -184 25 2 c23 2 32 22 26 60 0 4 0 92 0 195 1 372 1 364 -18 379 -17 12 -16 13 7 14 25 1 25 1 3 10 -27 11 -30 27 -5 33 9 3 0 5 -20 6 -43 1 -49 8 -51 61 -1 22 -1 40 -2 39 0 -1 -11 -5 -25 -9z m100 -286 c0 -8 -4 -12 -10 -9 -5 3 -10 10 -10 16 0 5 5 9 10 9 6 0 10 -7 10 -16z m0 -74 c0 -5 -8 -10 -17 -10 -15 0 -16 2 -3 10 19 12 20 12 20 0z"
       id="path400"
       style="fill-opacity:1.0;fill:url(#linearGradient33604)" />
    <path
       d="M8504 1175 c2 -19 7 -39 11 -44 7 -13 16 -75 9 -68 -6 6 -153 -143 -167 -169 -19 -33 -27 -9 -27 81 0 98 3 103 44 96 5 -1 6 5 3 13 -4 9 1 17 12 21 24 7 34 42 15 49 -8 3 -14 0 -14 -6 0 -7 -4 -7 -14 1 -11 9 -15 7 -19 -9 -4 -15 -13 -20 -40 -20 l-35 0 -1 -185 c-2 -155 0 -185 12 -185 8 0 46 35 83 77 38 43 89 99 112 125 24 26 41 51 38 57 -4 5 3 12 14 16 11 3 21 11 21 16 1 5 2 15 3 22 0 6 8 12 16 12 20 1 40 14 40 27 0 7 -6 6 -15 -2 -12 -10 -15 -9 -15 5 0 11 -5 15 -15 11 -9 -3 -15 -1 -14 7 1 6 1 30 0 52 -1 32 -4 37 -12 23 -12 -22 -29 -23 -29 -3 0 8 -5 15 -10 15 -6 0 -8 -15 -6 -35z"
       id="path402"
       style="fill-opacity:1.0;fill:url(#linearGradient33602)" />
    <path
       d="M160 1149 c0 -5 5 -7 10 -4 6 3 10 8 10 11 0 2 -4 4 -10 4 -5 0 -10 -5 -10 -11z"
       id="path404"
       style="fill-opacity:1.0;fill:url(#linearGradient34113)" />
    <path
       d="M7267 1111 c-6 -10 -20 -20 -29 -24 -15 -5 -18 -19 -18 -77 0 -49 4 -70 13 -70 9 0 9 -2 0 -8 -8 -5 -12 -35 -11 -89 0 -71 3 -81 17 -75 13 5 14 3 3 -10 -10 -13 -10 -17 0 -21 8 -4 7 -6 -4 -6 -16 -1 -18 -16 -18 -170 l0 -169 29 -31 29 -31 112 0 c108 0 113 1 141 27 26 25 29 34 29 90 0 54 3 64 22 74 27 14 147 12 165 -3 9 -7 13 -39 13 -92 l0 -81 -45 -50 c-25 -28 -45 -58 -45 -68 0 -10 -4 -16 -10 -12 -5 3 -30 -10 -55 -30 l-47 -35 -163 0 c-90 0 -171 -3 -180 -6 -12 -5 -44 21 -116 93 l-99 100 -1 164 c0 90 -1 224 -1 297 -1 79 -5 132 -11 132 -6 0 -6 5 1 13 10 12 12 126 2 128 -48 12 -50 9 -50 -67 0 -48 4 -74 13 -77 10 -4 10 -6 0 -6 -9 -1 -13 -18 -13 -50 0 -30 5 -51 13 -54 10 -4 10 -6 0 -6 -10 -1 -13 -55 -12 -238 0 -131 3 -245 7 -254 11 -27 164 -188 198 -210 28 -17 51 -19 222 -19 110 0 202 4 219 11 15 5 72 55 125 109 l98 99 0 114 c0 99 -2 116 -20 135 -25 27 -71 35 -161 30 -63 -3 -74 -7 -95 -31 -19 -22 -24 -40 -24 -80 -1 -79 -11 -87 -117 -87 -128 0 -123 -9 -123 226 0 135 -4 194 -12 202 -9 9 -9 12 1 12 8 0 12 12 10 38 -4 82 2 169 14 185 16 22 178 30 206 11 17 -12 30 -57 32 -106 1 -32 71 -64 102 -46 12 6 17 5 17 -3 0 -7 8 -5 20 6 11 10 20 13 20 7 0 -6 10 -12 23 -14 31 -5 77 11 77 27 0 8 6 18 14 22 8 4 15 26 16 48 3 55 1 62 -10 45 -8 -13 -11 -12 -25 5 -16 20 -16 20 -10 -2 3 -12 -1 -38 -9 -57 l-15 -36 -67 0 c-61 0 -66 -1 -61 -20 3 -11 1 -20 -4 -20 -5 0 -9 7 -9 15 0 8 -9 24 -20 35 -19 19 -25 48 -20 93 1 10 -11 29 -26 42 -26 22 -36 24 -141 23 -95 0 -115 -3 -126 -17z m93 -10 c0 -6 -4 -13 -10 -16 -5 -3 -10 1 -10 9 0 9 5 16 10 16 6 0 10 -4 10 -9z m200 -132 c0 -5 -4 -9 -10 -9 -5 0 -10 7 -10 16 0 8 5 12 10 9 6 -3 10 -10 10 -16z"
       id="path406"
       style="fill-opacity:1.0;fill:url(#linearGradient33392)" />
    <path
       d="M6814 923 c-19 -4 -22 -11 -23 -74 -1 -66 0 -70 19 -64 11 4 20 2 20 -4 0 -6 5 -11 10 -11 6 0 10 20 10 45 0 31 -5 47 -17 54 -17 10 -17 10 0 11 11 0 17 8 17 25 0 14 -3 24 -7 24 -5 -1 -18 -4 -29 -6z m26 -17 c0 -3 -4 -8 -10 -11 -5 -3 -10 -1 -10 4 0 6 5 11 10 11 6 0 10 -2 10 -4z"
       id="path408"
       style="fill-opacity:1.0;fill:url(#linearGradient33612)" />
    <path
       d="M3615 860 c-3 -5 -12 -7 -20 -3 -8 3 -15 0 -15 -6 0 -6 7 -11 15 -11 8 0 15 -4 15 -10 0 -5 -4 -10 -9 -10 -17 0 1 -41 25 -56 13 -9 20 -22 17 -30 -3 -7 2 -17 11 -20 9 -3 16 -13 16 -20 0 -8 8 -24 19 -35 10 -11 17 -28 14 -38 -2 -10 3 -23 11 -30 10 -9 16 -30 16 -58 0 -38 3 -44 16 -39 15 6 15 4 0 -18 -22 -35 -21 -67 2 -60 10 4 13 3 6 -3 -6 -4 -17 -18 -23 -31 -8 -16 -18 -21 -29 -17 -10 4 -24 -4 -39 -21 -26 -31 -25 -25 -27 -119 -4 -127 21 -145 200 -145 103 0 114 2 111 18 -1 9 2 17 8 17 5 0 8 -8 7 -18 -3 -17 3 -18 68 -14 53 3 76 9 90 23 23 23 38 84 21 84 -6 0 -11 5 -11 11 0 5 5 7 10 4 10 -6 15 47 5 57 -3 3 -17 3 -30 0 -18 -3 -25 -11 -25 -27 0 -13 5 -25 12 -27 8 -3 7 -12 -3 -34 -14 -29 -15 -29 -109 -32 -60 -2 -97 -7 -102 -15 -6 -9 -10 -9 -15 -1 -10 13 -97 16 -129 4 -15 -6 -26 -5 -30 1 -3 6 -19 9 -35 7 -15 -3 -26 -1 -23 4 3 4 12 8 21 8 12 0 14 11 11 63 -7 86 3 107 46 107 36 0 68 31 46 45 -6 3 -7 18 -4 32 6 23 8 58 5 106 -1 10 -5 16 -11 12 -5 -3 -3 6 5 21 10 21 11 32 2 53 -6 14 -14 28 -17 31 -4 3 -12 20 -19 38 -8 18 -21 38 -30 45 -9 7 -17 22 -19 34 -3 20 -60 133 -67 133 -2 0 -6 -4 -10 -10z m91 -187 c-7 -7 -26 7 -26 19 0 6 6 6 15 -2 9 -7 13 -15 11 -17z"
       id="path410"
       style="fill-opacity:1;fill:url(#linearGradient33901)" />
    <path
       d="M8026 401 c-4 -6 -12 -9 -17 -6 -5 4 -9 0 -9 -8 0 -16 -26 -30 -40 -22 -4 3 -14 -3 -21 -12 -12 -14 -11 -15 9 -9 13 5 22 3 22 -3 0 -11 -15 -15 -34 -12 -16 3 -23 -18 -25 -81 l-2 -60 28 6 c23 5 25 4 11 -4 -10 -6 -18 -20 -18 -31 0 -12 4 -17 11 -14 6 4 8 13 5 21 -3 8 1 14 9 14 9 0 15 10 15 25 0 16 -4 23 -14 19 -7 -3 -16 2 -20 11 -5 13 -1 15 14 10 14 -5 20 -2 20 9 0 9 -4 16 -10 16 -5 0 -10 5 -10 11 0 5 4 8 9 5 5 -3 11 3 14 14 4 15 14 20 41 20 34 0 36 2 36 33 0 38 -14 65 -24 48z"
       id="path412"
       style="fill-opacity:1.0;fill:url(#linearGradient33606)" />
  </g>
</svg>
