<?xml version="1.0" encoding="UTF-8" standalone="no"?>
<!-- Generator: Adobe Illustrator 25.4.0, SVG Export Plug-In . SVG Version: 6.00 Build 0)  -->

<svg
   version="1.1"
   id="Layer_1"
   x="0px"
   y="0px"
   viewBox="0 0 226.2 33.2"
   xml:space="preserve"
   sodipodi:docname="standards-copy-2.svg"
   inkscape:version="1.1.2 (0a00cf5339, 2022-02-04, custom)"
   width="226.2"
   height="33.200001"
   xmlns:inkscape="http://www.inkscape.org/namespaces/inkscape"
   xmlns:sodipodi="http://sodipodi.sourceforge.net/DTD/sodipodi-0.dtd"
   xmlns="http://www.w3.org/2000/svg"
   xmlns:svg="http://www.w3.org/2000/svg"><defs
   id="defs386" /><sodipodi:namedview
   id="namedview384"
   pagecolor="#ffffff"
   bordercolor="#666666"
   borderopacity="1.0"
   inkscape:pageshadow="2"
   inkscape:pageopacity="0.0"
   inkscape:pagecheckerboard="0"
   showgrid="false"
   inkscape:zoom="2.354874"
   inkscape:cx="97.882095"
   inkscape:cy="-7.6437211"
   inkscape:window-width="1920"
   inkscape:window-height="1017"
   inkscape:window-x="1920"
   inkscape:window-y="0"
   inkscape:window-maximized="1"
   inkscape:current-layer="Layer_1"
   fit-margin-top="0"
   fit-margin-left="0"
   fit-margin-right="0"
   fit-margin-bottom="0" />
  <style
   type="text/css"
   id="style273">
	.st0{fill:#7CC243;}
	.st1{fill:#294A9B;}
	.st2{fill:#FFFFFF;}
	.st3{enable-background:new    ;}
	.st4{fill:#4C2532;}
	.st5{fill:#5E2261;}
	.st6{fill:#9C7AA0;}
	.st7{fill:#5B245A;}
	.st8{fill:#007B92;}
	.st9{fill:#008B79;}
	.st10{fill:#0D2C6C;}
	.st11{fill:#0083A2;}
</style>
  
  
  
  
  
  
  
  
  
  <g
   id="g381"
   transform="translate(-0.5,-73.6)">
    <path
   class="st11"
   d="m 10,98.3 -2.2,8 H 0.5 l 9.5,-31 h 9.2 l 9.7,31 h -7.6 l -2.4,-8 z m 7.8,-5.2 -1.9,-6.6 c -0.5,-1.8 -1.1,-4.2 -1.6,-6 h -0.1 c -0.5,1.8 -0.9,4.2 -1.4,6 L 11,93.1 Z"
   id="path361" />
    <path
   class="st11"
   d="m 32.2,91.2 c 0,-3.3 -0.1,-5.5 -0.2,-7.4 h 6 l 0.3,4.2 h 0.2 c 1.2,-3.3 3.9,-4.7 6.1,-4.7 0.6,0 1,0 1.5,0.1 V 90 c -0.5,-0.1 -1.1,-0.2 -1.9,-0.2 -2.6,0 -4.3,1.4 -4.8,3.6 -0.1,0.4 -0.1,1 -0.1,1.6 v 11.4 h -7 V 91.2 Z"
   id="path363" />
    <path
   class="st11"
   d="m 66.1,105.7 c -1.3,0.6 -3.6,1 -6.3,1 -7.3,0 -11.9,-4.5 -11.9,-11.5 0,-6.6 4.5,-12 12.9,-12 1.9,0 3.9,0.3 5.3,0.9 L 65,89.4 c -0.8,-0.4 -2.1,-0.7 -3.9,-0.7 -3.7,0 -6.1,2.6 -6,6.3 0,4.1 2.8,6.3 6.2,6.3 1.7,0 3,-0.3 4,-0.7 z"
   id="path365" />
    <path
   class="st11"
   d="m 69.7,73.6 h 7 v 12.9 h 0.1 c 0.7,-1 1.6,-1.7 2.7,-2.3 1,-0.6 2.3,-0.9 3.6,-0.9 4.5,0 7.9,3.1 7.9,9.9 v 13.1 H 84 V 93.9 c 0,-3 -1,-5 -3.6,-5 -1.9,0 -3,1.2 -3.5,2.5 -0.2,0.4 -0.2,1 -0.2,1.5 v 13.4 h -7 z"
   id="path367" />
    <path
   class="st11"
   d="m 103.7,77.5 c 0,1.9 -1.4,3.5 -3.8,3.5 -2.2,0 -3.7,-1.5 -3.6,-3.5 0,-2 1.5,-3.5 3.7,-3.5 2.3,0 3.7,1.5 3.7,3.5 z m -7.2,28.8 V 83.8 h 7 v 22.5 z"
   id="path369" />
    <path
   class="st11"
   d="m 135.4,94.4 c -0.1,-3.8 -0.3,-8.2 -0.3,-12.8 H 135 c -1,4 -2.3,8.4 -3.5,12 l -3.8,12.1 h -5.4 l -3.3,-12 c -1,-3.7 -2,-8.1 -2.8,-12.1 h -0.1 c -0.2,4.2 -0.3,9 -0.5,12.9 l -0.6,11.8 h -6.5 l 2,-31 h 9.3 l 3,10.4 c 1,3.6 1.9,7.5 2.6,11.1 h 0.1 c 0.8,-3.6 1.9,-7.7 2.9,-11.1 l 3.3,-10.3 h 9.2 l 1.7,31 h -6.8 z"
   id="path371" />
    <path
   class="st11"
   d="m 160.6,106.3 -0.4,-2.2 h -0.1 c -1.5,1.8 -3.8,2.7 -6.4,2.7 -4.6,0 -7.3,-3.3 -7.3,-6.9 0,-5.9 5.2,-8.6 13.2,-8.6 V 91 c 0,-1.2 -0.6,-2.9 -4.1,-2.9 -2.3,0 -4.7,0.8 -6.2,1.7 L 148,85.3 c 1.6,-0.9 4.6,-2 8.8,-2 7.5,0 9.9,4.4 9.9,9.7 v 7.9 c 0,2.1 0.1,4.2 0.4,5.5 h -6.5 z m -0.8,-10.7 c -3.7,0 -6.5,0.9 -6.5,3.5 0,1.8 1.2,2.7 2.8,2.7 1.7,0 3.2,-1.1 3.6,-2.6 0.1,-0.4 0.1,-0.8 0.1,-1.2 z"
   id="path373" />
    <path
   class="st11"
   d="m 179.3,77.3 v 6.4 h 5 v 5.2 h -5 v 8.2 c 0,2.7 0.7,4 2.8,4 0.9,0 1.6,-0.1 2.1,-0.2 l 0.1,5.3 c -0.9,0.3 -2.6,0.6 -4.5,0.6 -2.3,0 -4.2,-0.8 -5.3,-2 -1.3,-1.3 -1.9,-3.5 -1.9,-6.7 v -9.2 h -3 v -5.2 h 3 v -4.8 z"
   id="path375" />
    <path
   class="st11"
   d="m 193.4,97.3 c 0.2,2.9 3.1,4.3 6.3,4.3 2.4,0 4.3,-0.3 6.2,-1 l 0.9,4.7 c -2.3,0.9 -5.1,1.4 -8.2,1.4 -7.6,0 -12,-4.4 -12,-11.5 0,-5.7 3.6,-12 11.3,-12 7.3,0 10.1,5.7 10.1,11.2 0,1.2 -0.1,2.3 -0.2,2.8 h -14.4 z m 8.2,-4.8 c 0,-1.7 -0.7,-4.6 -3.9,-4.6 -3,0 -4.2,2.7 -4.3,4.6 z"
   id="path377" />
    <path
   class="st11"
   d="m 226.7,82.3 c 0,4.3 -3.4,7.6 -7.7,7.6 -4.3,0 -7.8,-3.4 -7.8,-7.6 0,-4.2 3.5,-7.5 7.8,-7.5 4.3,0 7.7,3.3 7.7,7.5 z m -13.6,0 c 0,3.4 2.5,6 5.9,6 3.3,0 5.8,-2.7 5.8,-6 0,-3.4 -2.4,-6.1 -5.8,-6.1 -3.4,0 -5.9,2.8 -5.9,6.1 z m 4.7,4 H 216 v -7.5 c 0.7,-0.1 1.7,-0.2 2.9,-0.2 1.4,0 2.1,0.2 2.6,0.6 0.4,0.3 0.7,0.9 0.7,1.7 0,0.8 -0.6,1.5 -1.6,1.7 v 0.1 c 0.7,0.3 1.2,0.8 1.4,1.8 0.2,1.2 0.4,1.6 0.6,1.9 h -1.9 c -0.2,-0.3 -0.4,-1 -0.6,-1.8 -0.1,-0.8 -0.6,-1.2 -1.6,-1.2 h -0.8 v 2.9 z m 0,-4.3 h 0.8 c 1,0 1.7,-0.3 1.7,-1.1 0,-0.7 -0.5,-1.2 -1.6,-1.2 -0.5,0 -0.8,0 -1,0.1 V 82 Z"
   id="path379" />
  </g>
</svg>
