<?xml version="1.0" encoding="UTF-8" standalone="no"?>
<!-- Generator: Adobe Illustrator 25.4.0, SVG Export Plug-In . SVG Version: 6.00 Build 0)  -->

<svg
   version="1.1"
   id="Layer_1"
   x="0px"
   y="0px"
   viewBox="0 0 150.8 30.426444"
   xml:space="preserve"
   sodipodi:docname="standards-copy-1.svg"
   inkscape:version="1.1.2 (0a00cf5339, 2022-02-04, custom)"
   width="150.8"
   height="30.426447"
   xmlns:inkscape="http://www.inkscape.org/namespaces/inkscape"
   xmlns:sodipodi="http://sodipodi.sourceforge.net/DTD/sodipodi-0.dtd"
   xmlns="http://www.w3.org/2000/svg"
   xmlns:svg="http://www.w3.org/2000/svg"><defs
   id="defs386" /><sodipodi:namedview
   id="namedview384"
   pagecolor="#ffffff"
   bordercolor="#666666"
   borderopacity="1.0"
   inkscape:pageshadow="2"
   inkscape:pageopacity="0.0"
   inkscape:pagecheckerboard="0"
   showgrid="false"
   inkscape:zoom="2.354874"
   inkscape:cx="81.74535"
   inkscape:cy="65.39628"
   inkscape:window-width="1920"
   inkscape:window-height="1017"
   inkscape:window-x="1920"
   inkscape:window-y="0"
   inkscape:window-maximized="1"
   inkscape:current-layer="Layer_1"
   fit-margin-top="0"
   fit-margin-left="0"
   fit-margin-right="0"
   fit-margin-bottom="0" />
  <style
   type="text/css"
   id="style273">
	.st0{fill:#7CC243;}
	.st1{fill:#294A9B;}
	.st2{fill:#FFFFFF;}
	.st3{enable-background:new    ;}
	.st4{fill:#4C2532;}
	.st5{fill:#5E2261;}
	.st6{fill:#9C7AA0;}
	.st7{fill:#5B245A;}
	.st8{fill:#007B92;}
	.st9{fill:#008B79;}
	.st10{fill:#0D2C6C;}
	.st11{fill:#0083A2;}
</style>
  
  
  
  
  
  
  
  <g
   id="g343"
   transform="translate(0,-5.8)">
    <path
   class="st8"
   d="m 85.7,7.2 c -0.5,1.8 -1,3.5 -1.4,5.3 -0.1,0.4 -0.1,0.8 -0.3,1.2 -0.1,0.3 -0.4,0.6 -0.6,0.7 -0.5,0.2 -0.8,0 -0.7,-0.6 0,-0.3 0.1,-0.6 0.1,-0.9 0.2,-2.3 -0.9,-4 -3.2,-4.5 -3.5,-0.8 -6.8,-0.1 -9.7,1.9 -2.8,1.9 -4.7,4.5 -6.1,7.5 -1.4,3.1 -2.5,6.3 -2.6,9.7 -0.1,5.3 4.1,7 7.5,6.8 0.6,0 1.2,-0.1 1.8,-0.2 1.2,-0.1 2.1,-0.6 2.6,-1.7 0.7,-1.8 1.4,-3.7 1.9,-5.6 0.2,-0.7 -0.2,-1.3 -0.9,-1.5 C 73.4,25.1 72.6,25 71.8,24.9 71.4,24.8 71,25 71.1,24.4 c 0.1,-0.5 0.3,-1 0.9,-0.8 2.6,0.7 5.3,0.3 8,0.4 0.7,0 1.5,-0.2 2.2,-0.3 0.2,0 0.4,0 0.4,0 0.1,0.2 0.1,0.4 0,0.5 -0.2,0.3 -0.5,0.7 -0.7,0.7 -2.3,-0.1 -3.2,1.5 -3.8,3.4 -0.4,1.1 -0.6,2.3 -0.8,3.5 -0.1,0.5 0,1.1 0.1,1.6 0.1,0.5 0.1,0.7 -0.5,0.8 -2.1,0.4 -4.2,1 -6.3,1.3 -2.3,0.4 -4.7,0.4 -7,-0.2 -3.9,-1 -6.4,-4.3 -6.4,-8.3 0,-3.2 0.7,-6.3 2.3,-9.2 2.8,-5.1 6.7,-8.9 12.3,-10.8 3.7,-1.3 7.5,-1.5 11.3,-0.1 0.8,0.4 1.7,0.3 2.6,0.3 z"
   id="path327" />
    <path
   class="st8"
   d="m 119.2,7.5 c 0.2,-1.3 0.6,-1.5 1.7,-1.4 1.6,0.2 3.2,0.3 4.8,0.3 3.8,0 7.7,0 11.5,-0.1 0.7,0 1.5,-0.2 2.3,-0.3 -0.1,0.8 -0.2,1.5 -0.2,2.3 -0.1,1.1 -0.3,2.2 -0.4,3.3 -0.1,0.6 -1,1.1 -1.4,0.8 -0.1,-0.1 -0.2,-0.4 -0.2,-0.6 -0.1,-0.7 0,-1.5 -0.2,-2.2 -0.1,-0.4 -0.6,-0.9 -1.1,-1 -1.6,-0.6 -3.2,-0.7 -4.9,-0.7 -0.9,0 -1.8,0 -2.7,0 -0.9,0 -1.3,0.3 -1.6,1.2 -0.9,3.2 -1.7,6.5 -2.6,9.7 -0.1,0.5 0.1,0.8 0.6,0.8 2,0 4.1,0 6.1,-0.2 1.5,-0.1 2.1,-1.4 2.5,-2.7 0.1,-0.4 0.4,-0.7 0.8,-0.9 0.5,-0.3 0.9,0.2 0.8,0.7 -0.7,2.8 -1.5,5.5 -2.2,8.3 -0.3,0.9 -1,0.3 -1.6,0.5 0.1,-0.4 0.2,-0.7 0.2,-1 0.4,-1.7 -0.2,-2.7 -1.9,-2.9 -1.6,-0.1 -3.1,-0.1 -4.7,-0.1 -0.7,0 -1.2,0.4 -1.4,1 -0.8,3.1 -1.7,6.2 -2.3,9.3 -0.3,1.6 0.9,2.7 2.5,2.6 0.5,0 0.9,-0.2 1.4,-0.3 0.4,-0.1 0.5,0.1 0.5,0.5 -0.1,1 -0.4,1.3 -1.4,1.3 -2.5,0 -5.1,0 -7.6,0.1 -1.6,0.1 -3.3,0.3 -4.9,0.4 -0.4,0 -0.9,0.2 -0.9,-0.5 0,-0.6 0.3,-1 0.9,-1 0.5,0 0.9,0 1.4,0 1.7,0 2.9,-0.7 3.5,-2.2 0.7,-1.8 1.3,-3.7 1.8,-5.7 1.3,-4.9 2.7,-9.7 3.9,-14.6 0.2,-1 0.3,-2 0.1,-3 -0.1,-1.2 -0.9,-1.7 -2.1,-1.7 -0.3,0 -0.6,0 -1,0 z"
   id="path329" />
    <path
   class="st8"
   d="m 97.7,35.7 c 0.2,-0.1 0.4,-0.3 0.7,-0.3 2.8,-0.3 3.4,-1 3.3,-3.8 -0.1,-1.7 -0.3,-3.5 -0.4,-5.2 0,-0.5 -0.2,-0.7 -0.7,-0.7 -2.9,0 -5.9,0 -8.8,0 -0.3,0 -0.7,0.3 -0.8,0.5 -1.1,1.7 -2.1,3.5 -3.2,5.3 -0.3,0.6 -0.5,1.2 -0.7,1.9 -0.3,0.9 0.1,1.5 1.1,1.8 0.3,0.1 0.7,0.1 1.1,0.2 0.1,0 0.3,0.2 0.4,0.3 -0.2,0.1 -0.3,0.2 -0.5,0.2 -1.6,-0.1 -3.2,-0.3 -4.8,-0.3 -1,0 -2.1,0.2 -3.3,0.3 0.2,-0.2 0.3,-0.5 0.4,-0.5 1.4,-0.3 2.3,-1.4 3.1,-2.5 2.6,-3.8 5.2,-7.5 7.7,-11.3 3.4,-5 6.7,-10 10,-15 0.1,-0.2 0.3,-0.5 0.5,-0.6 0.2,-0.1 0.5,-0.2 0.8,-0.2 0.1,0 0.2,0.3 0.2,0.5 0.3,3.6 0.6,7.1 0.9,10.7 0.3,4.1 0.7,8.1 1,12.2 0.1,1.3 0.2,2.5 0.3,3.8 0.2,1.6 0.8,2.2 2.4,2.4 0.1,0 0.2,0 0.3,0 0.1,0.1 0.2,0.2 0.4,0.4 -0.2,0.1 -0.3,0.2 -0.5,0.2 -1,-0.1 -2,-0.2 -3,-0.4 -2.5,-0.3 -4.9,0 -7.4,0.3 -0.1,0 -0.2,0 -0.3,0 -0.1,-0.1 -0.2,-0.2 -0.2,-0.2 z M 92.3,24.1 c 0,0.1 0.1,0.1 0.1,0.2 2.8,0 5.5,0 8.3,0 0.1,0 0.4,-0.4 0.4,-0.6 0,-0.7 0,-1.5 -0.1,-2.2 -0.2,-2.7 -0.4,-5.5 -0.6,-8.2 0,-0.3 -0.2,-0.5 -0.3,-0.8 -0.1,0 -0.1,0 -0.2,0 -2.5,3.8 -5.1,7.7 -7.6,11.6 z"
   id="path331" />
    <path
   class="st8"
   d="M 0,36.2 C 0.1,34.8 0.3,34.5 1.5,34.7 4,35 5.4,33.8 6.2,31.6 c 1.1,-3 2.1,-6 3,-9 1.3,-4.1 2.6,-8.1 3.9,-12.2 0.3,-1 0.2,-1.2 -0.8,-1.2 -1.6,0 -3.1,0 -4.7,0.1 C 6.1,9.4 4.8,10 3.8,11 3.2,11.6 2.7,12.2 2,12.8 1.8,13 1.4,13.1 1.2,13.2 1.1,13.2 1,13.1 1,13 2.4,10.7 3.7,8.3 5.1,6 c 0.2,0.5 0.3,1.1 0.6,1.3 0.4,0.3 1,0.3 1.4,0.3 6.1,0 12.1,0 18.2,0.1 1.8,0 3.4,-0.4 5,-1.5 0,0.3 -0.1,0.5 -0.2,0.8 -0.9,2 -1.7,4 -2.6,6 -0.1,0.2 -0.5,0.3 -0.7,0.5 -0.1,-0.3 -0.1,-0.5 -0.2,-0.8 0,-0.1 0,-0.2 0.1,-0.4 0.2,-1.8 -0.4,-2.8 -2.2,-2.9 -1.9,-0.2 -3.9,-0.1 -5.8,-0.1 -1.4,0 -2.1,0.8 -2.5,2.1 -1.3,4.2 -2.6,8.4 -3.9,12.6 -0.8,2.5 -1.6,5.1 -2.4,7.6 -0.1,0.4 -0.2,0.8 -0.2,1.1 -0.1,1.2 0.5,1.8 1.7,1.9 0.3,0 0.6,0 0.9,0 0.3,0 0.8,-0.1 0.8,0.4 0,0.5 -0.4,1.1 -0.9,1.1 -0.8,0 -1.6,0 -2.4,-0.2 -2.2,-0.4 -4.5,-0.3 -6.7,0 -1,0.1 -2,0.2 -3.1,0.3 z"
   id="path333" />
    <path
   class="st9"
   d="m 31.6,32.4 c 1,1.2 2.3,2 3.8,2.3 2.9,0.6 5.5,-0.2 7.8,-2.2 2.7,-2.4 4.3,-5.6 5.7,-8.9 1.1,-2.7 1.8,-5.6 2,-8.5 0.1,-1.1 -0.1,-2.2 -0.5,-3.2 -0.6,-1.7 -2,-2.6 -3.9,-2.6 -0.3,0 -0.6,0 -0.8,0 1.3,-0.4 2.5,-0.3 3.7,0.4 2.4,1.2 3.7,3.2 4.2,5.8 0.9,4.6 -0.2,8.9 -2.7,12.9 -2.1,3.4 -4.9,6 -8.8,7.1 -3,0.8 -6,0.9 -8.7,-1 -0.8,-0.5 -1.4,-1.2 -2,-1.9 0.1,-0.1 0.1,-0.1 0.2,-0.2 z"
   id="path335" />
    <path
   class="st9"
   d="M 50.3,8.2 C 48.4,6.8 46.2,6.4 43.9,6.8 c -1.5,0.3 -2.8,1.1 -4,2.2 -3.1,2.9 -5,6.5 -6.4,10.4 -0.8,2.2 -1.5,4.6 -1.5,7 -0.1,2.2 0.4,4.3 2.5,5.6 0.8,0.5 1.3,0.5 3.4,0.5 -1.6,0.7 -3.2,0.6 -4.7,-0.1 -2.1,-1.1 -3,-3 -3.5,-5.1 -1.8,-7.5 2.1,-16.2 9,-19.8 C 41.8,5.9 45,5.4 48.3,6.8 49,7 49.7,7.5 50.5,8 50.4,8.1 50.4,8.1 50.3,8.2 Z"
   id="path337" />
    <path
   class="st8"
   d="m 150.8,10.5 c 0,2.3 -1.8,4.1 -4,4.1 -2.2,0 -4.1,-1.9 -4.1,-4.1 0,-2.2 1.9,-4.1 4.1,-4.1 2.2,0.1 4,1.9 4,4.1 z m -0.8,0 c 0,-1.9 -1.4,-3.4 -3.2,-3.4 -1.7,0 -3.2,1.6 -3.2,3.4 0,1.8 1.5,3.3 3.2,3.3 1.8,0.2 3.2,-1.3 3.2,-3.3 z"
   id="path339" />
    <path
   class="st8"
   d="m 146,12.8 c -0.6,0.2 -0.8,0.1 -0.8,-0.4 0,-1.1 0,-2.3 0,-3.4 0,-0.5 0.2,-0.6 0.7,-0.6 0.3,0 0.7,0 1,0 0.7,0 1.3,0.1 1.5,0.8 0.2,0.7 -0.1,1.2 -0.5,1.4 0.2,0.8 0.5,1.5 0.7,2.3 -0.8,0.3 -1,-0.2 -1.1,-0.7 -0.1,-1 -0.4,-1.2 -1.5,-1 0,0.4 0,1 0,1.6 z m 0,-3.1 c 0,0.4 0,0.8 0.6,0.7 0.5,0 1,-0.1 1,-0.8 0,-0.6 -0.6,-0.7 -1.1,-0.7 -0.6,-0.1 -0.6,0.3 -0.5,0.8 z"
   id="path341" />
  </g>
  
  
</svg>
